<?xml version="1.0" encoding="utf-8"?>
<!-- Generator: Adobe Illustrator 18.0.0, SVG Export Plug-In . SVG Version: 6.00 Build 0)  -->
<!DOCTYPE svg PUBLIC "-//W3C//DTD SVG 1.1//EN" "http://www.w3.org/Graphics/SVG/1.1/DTD/svg11.dtd">
<svg version="1.1" id="Layer_1" xmlns="http://www.w3.org/2000/svg" xmlns:xlink="http://www.w3.org/1999/xlink" x="0px" y="0px"
	 viewBox="0 0 16 16" enable-background="new 0 0 16 16" xml:space="preserve">
<ellipse fill="none" cx="8" cy="8" rx="0.6" ry="0.6"/>
<path fill="none" d="M8,2.3C4.8,2.3,2.3,4.8,2.3,8s2.6,5.7,5.7,5.7s5.7-2.6,5.7-5.7S11.2,2.3,8,2.3z M8,10.3c-1.3,0-2.3-1-2.3-2.3
	S8,3.4,8,3.4s2.3,3.3,2.3,4.6S9.3,10.3,8,10.3z"/>
<path fill="#0066CC" d="M0,8c0,4.4,3.6,8,8,8s8-3.6,8-8s-3.6-8-8-8S0,3.6,0,8z M13.7,8c0,3.2-2.6,5.7-5.7,5.7S2.3,11.2,2.3,8
	S4.8,2.3,8,2.3S13.7,4.8,13.7,8z"/>
<rect x="6.6" y="-0.9" fill="none" width="2.8" height="3.7"/>
<text transform="matrix(1 0 0 1 6.5781 2.654)" fill="#FFFFFF" font-family="'MyriadPro-Regular'" font-size="5">n</text>
<rect y="6.2" fill="none" width="5.1" height="3.7"/>
<text transform="matrix(1 0 0 1 0 9.7142)" fill="#FFFFFF" font-family="'MyriadPro-Regular'" font-size="5">w</text>
<rect x="13.4" y="5.8" fill="none" width="2.6" height="4.4"/>
<text transform="matrix(1 0 0 1 13.3957 9.3571)" fill="#FFFFFF" font-family="'MyriadPro-Regular'" font-size="5">e</text>
<rect x="7" y="12.4" fill="none" width="2" height="3.6"/>
<text transform="matrix(1 0 0 1 7.0103 15.9248)" fill="#FFFFFF" font-family="'MyriadPro-Regular'" font-size="5">s</text>
<path fill="#FF3300" d="M7.2,10.3c1.7,0,3.1-1,3.1-2.3S8.9,5.7,7.2,5.7S0.9,8,0.9,8S5.4,10.3,7.2,10.3z M7.2,7.4C7.6,7.4,8,7.7,8,8
	S7.6,8.6,7.2,8.6C6.7,8.6,6.4,8.3,6.4,8S6.7,7.4,7.2,7.4z"/>
</svg>
