<?xml version="1.0" encoding="utf-8"?>
<!-- Generator: Adobe Illustrator 18.0.0, SVG Export Plug-In . SVG Version: 6.00 Build 0)  -->
<!DOCTYPE svg PUBLIC "-//W3C//DTD SVG 1.1//EN" "http://www.w3.org/Graphics/SVG/1.1/DTD/svg11.dtd">
<svg version="1.1" id="Layer_1" xmlns="http://www.w3.org/2000/svg" xmlns:xlink="http://www.w3.org/1999/xlink" x="0px" y="0px"
	 viewBox="0 0 16 16" enable-background="new 0 0 16 16" xml:space="preserve">
<path fill="#3399FF" d="M3.9,0l1.9,2.2c1.1,1.2,1.1,3.2,0,4.5C4.8,7.9,3,7.9,2,6.7S0.9,3.5,2,2.2L3.9,0z"/>
<path fill="#3399FF" d="M7.6,8.4l1.9,2.2c1.1,1.2,1.1,3.2,0,4.5s-2.8,1.2-3.9,0s-1.1-3.2,0-4.5L7.6,8.4z"/>
<path fill="#3399FF" d="M11.7,0l1.9,2.2c1.1,1.2,1.1,3.2,0,4.5c-1.1,1.2-2.8,1.2-3.9,0s-1.1-3.2,0-4.5L11.7,0z"/>
</svg>
