<?xml version="1.0" encoding="utf-8"?>
<!-- Generator: Adobe Illustrator 18.0.0, SVG Export Plug-In . SVG Version: 6.00 Build 0)  -->
<!DOCTYPE svg PUBLIC "-//W3C//DTD SVG 1.1//EN" "http://www.w3.org/Graphics/SVG/1.1/DTD/svg11.dtd">
<svg version="1.1" id="Слой_1" xmlns="http://www.w3.org/2000/svg" xmlns:xlink="http://www.w3.org/1999/xlink" x="0px" y="0px"
	 viewBox="-397 -237 44 44" enable-background="new -397 -237 44 44" xml:space="preserve">
<g>
	<g>
		<circle fill="#FFCC33" cx="-375" cy="-215" r="11.3"/>
	</g>
	<g>
		<path fill="#FFCC33" d="M-372.6-232.2c0-2.5-2.1-4.7-2.4-4.8l0,0l0,0l0,0l0,0c-0.2,0.1-2.4,2.2-2.4,4.8c0,1.7,1.4,2.4,2.4,2.4l0,0
			l0,0l0,0l0,0C-374-229.9-372.6-230.5-372.6-232.2z"/>
	</g>
	<g>
		<path fill="#FFCC33" d="M-377.4-197.8c0,2.5,2.1,4.7,2.4,4.8l0,0l0,0l0,0l0,0c0.2-0.1,2.4-2.2,2.4-4.8c0-1.7-1.4-2.4-2.4-2.4l0,0
			l0,0l0,0l0,0C-376-200.1-377.4-199.5-377.4-197.8z"/>
	</g>
	<g>
		<path fill="#FFCC33" d="M-357.8-212.6c2.5,0,4.7-2.1,4.8-2.4l0,0l0,0l0,0l0,0c-0.1-0.2-2.2-2.4-4.8-2.4c-1.7,0-2.4,1.4-2.4,2.4
			l0,0l0,0l0,0l0,0C-360.1-214-359.5-212.6-357.8-212.6z"/>
	</g>
	<g>
		<path fill="#FFCC33" d="M-392.2-217.4c-2.5,0-4.7,2.1-4.8,2.4l0,0l0,0l0,0l0,0c0.1,0.2,2.2,2.4,4.8,2.4c1.7,0,2.4-1.4,2.4-2.4l0,0
			l0,0l0,0l0,0C-389.9-216-390.5-217.4-392.2-217.4z"/>
	</g>
	<g>
		<path fill="#FFCC33" d="M-361.1-225.5c1.8-1.8,1.8-4.8,1.7-5l0,0l0,0l0,0l0,0c-0.2-0.1-3.3-0.1-5,1.7c-1.2,1.2-0.7,2.6,0,3.4l0,0
			l0,0l0,0l0,0C-363.8-224.8-362.4-224.3-361.1-225.5z"/>
	</g>
	<g>
		<path fill="#FFCC33" d="M-388.9-204.5c-1.8,1.8-1.8,4.8-1.7,5l0,0l0,0l0,0l0,0c0.2,0.1,3.3,0.1,5-1.7c1.2-1.2,0.7-2.6,0-3.4l0,0
			l0,0l0,0l0,0C-386.2-205.2-387.6-205.7-388.9-204.5z"/>
	</g>
	<g>
		<path fill="#FFCC33" d="M-364.5-201.1c1.8,1.8,4.8,1.8,5,1.7l0,0l0,0l0,0l0,0c0.1-0.2,0.1-3.3-1.7-5c-1.2-1.2-2.6-0.7-3.4,0l0,0
			l0,0l0,0l0,0C-365.2-203.8-365.7-202.4-364.5-201.1z"/>
	</g>
	<g>
		<path fill="#FFCC33" d="M-385.5-228.9c-1.8-1.8-4.8-1.8-5-1.7l0,0l0,0l0,0l0,0c-0.1,0.2-0.1,3.3,1.7,5c1.2,1.2,2.6,0.7,3.4,0l0,0
			l0,0l0,0l0,0C-384.8-226.2-384.3-227.6-385.5-228.9z"/>
	</g>
</g>
</svg>
