<?xml version="1.0" encoding="utf-8"?>
<!-- Generator: Adobe Illustrator 18.0.0, SVG Export Plug-In . SVG Version: 6.00 Build 0)  -->
<!DOCTYPE svg PUBLIC "-//W3C//DTD SVG 1.1//EN" "http://www.w3.org/Graphics/SVG/1.1/DTD/svg11.dtd">
<svg version="1.1" id="Слой_1" xmlns="http://www.w3.org/2000/svg" xmlns:xlink="http://www.w3.org/1999/xlink" x="0px" y="0px"
	 viewBox="-240 -152.6 50 35.1" enable-background="new -240 -152.6 50 35.1" xml:space="preserve">
<g>
	<path fill="#99CCFF" d="M-211.9-117.5c-2.9,0-5.7-0.7-8.2-2.2c-1.8,0.9-3.8,1.3-5.9,1.3c-7.7,0-14-6.4-14-14.4
		c0-7.9,6.3-14.4,14-14.4c0.5,0,1.1,0,1.6,0.1c3.2-3.5,7.7-5.5,12.5-5.5c6.5,0,12.4,3.8,15.3,9.7c4,1.8,6.6,5.8,6.6,10.3
		c0,6.2-4.9,11.2-11,11.2c-0.1,0-0.2,0-0.3,0C-204.3-118.8-208-117.5-211.9-117.5z M-220-125.5l1.3,0.9c2,1.4,4.4,2.1,6.8,2.1
		c3,0,5.9-1.1,8.2-3.2l0.8-0.8l1.1,0.2c0.3,0,0.6,0.1,0.8,0.1c3.4,0,6.1-2.8,6.1-6.3c0-2.7-1.7-5.1-4.3-6l-1.1-0.3l-0.4-1.1
		c-1.9-4.6-6.3-7.6-11.2-7.6c-3.8,0-7.3,1.7-9.6,4.8l-1,1.2l-1.5-0.3c-0.7-0.2-1.4-0.2-2-0.2c-5,0-9.1,4.2-9.1,9.4s4.1,9.4,9.1,9.4
		c1.6,0,3.3-0.5,4.7-1.3L-220-125.5z"/>
</g>
</svg>
