<?xml version="1.0" encoding="utf-8"?>
<!-- Generator: Adobe Illustrator 18.0.0, SVG Export Plug-In . SVG Version: 6.00 Build 0)  -->
<!DOCTYPE svg PUBLIC "-//W3C//DTD SVG 1.1//EN" "http://www.w3.org/Graphics/SVG/1.1/DTD/svg11.dtd">
<svg version="1.1" id="Слой_1" xmlns="http://www.w3.org/2000/svg" xmlns:xlink="http://www.w3.org/1999/xlink" x="0px" y="0px"
	 viewBox="-72.5 -72.5 35 35" enable-background="new -72.5 -72.5 35 35" xml:space="preserve">
<g>
	<g>
		<circle fill="#FFCC33" cx="-375" cy="-215" r="11.3"/>
	</g>
	<g>
		<path fill="#FFCC33" d="M-372.6-232.2c0-2.5-2.1-4.7-2.4-4.8l0,0l0,0l0,0l0,0c-0.2,0.1-2.4,2.2-2.4,4.8c0,1.7,1.4,2.4,2.4,2.4l0,0
			l0,0l0,0l0,0C-374-229.9-372.6-230.5-372.6-232.2z"/>
	</g>
	<g>
		<path fill="#FFCC33" d="M-377.4-197.8c0,2.5,2.1,4.7,2.4,4.8l0,0l0,0l0,0l0,0c0.2-0.1,2.4-2.2,2.4-4.8c0-1.7-1.4-2.4-2.4-2.4l0,0
			l0,0l0,0l0,0C-376-200.1-377.4-199.5-377.4-197.8z"/>
	</g>
	<g>
		<path fill="#FFCC33" d="M-357.8-212.6c2.5,0,4.7-2.1,4.8-2.4l0,0l0,0l0,0l0,0c-0.1-0.2-2.2-2.4-4.8-2.4c-1.7,0-2.4,1.4-2.4,2.4
			l0,0l0,0l0,0l0,0C-360.1-214-359.5-212.6-357.8-212.6z"/>
	</g>
	<g>
		<path fill="#FFCC33" d="M-392.2-217.4c-2.5,0-4.7,2.1-4.8,2.4l0,0l0,0l0,0l0,0c0.1,0.2,2.2,2.4,4.8,2.4c1.7,0,2.4-1.4,2.4-2.4l0,0
			l0,0l0,0l0,0C-389.9-216-390.5-217.4-392.2-217.4z"/>
	</g>
	<g>
		<path fill="#FFCC33" d="M-361.1-225.5c1.8-1.8,1.8-4.8,1.7-5l0,0l0,0l0,0l0,0c-0.2-0.1-3.3-0.1-5,1.7c-1.2,1.2-0.7,2.6,0,3.4l0,0
			l0,0l0,0l0,0C-363.8-224.8-362.4-224.3-361.1-225.5z"/>
	</g>
	<g>
		<path fill="#FFCC33" d="M-388.9-204.5c-1.8,1.8-1.8,4.8-1.7,5l0,0l0,0l0,0l0,0c0.2,0.1,3.3,0.1,5-1.7c1.2-1.2,0.7-2.6,0-3.4l0,0
			l0,0l0,0l0,0C-386.2-205.2-387.6-205.7-388.9-204.5z"/>
	</g>
	<g>
		<path fill="#FFCC33" d="M-364.5-201.1c1.8,1.8,4.8,1.8,5,1.7l0,0l0,0l0,0l0,0c0.1-0.2,0.1-3.3-1.7-5c-1.2-1.2-2.6-0.7-3.4,0l0,0
			l0,0l0,0l0,0C-365.2-203.8-365.7-202.4-364.5-201.1z"/>
	</g>
	<g>
		<path fill="#FFCC33" d="M-385.5-228.9c-1.8-1.8-4.8-1.8-5-1.7l0,0l0,0l0,0l0,0c-0.1,0.2-0.1,3.3,1.7,5c1.2,1.2,2.6,0.7,3.4,0l0,0
			l0,0l0,0l0,0C-384.8-226.2-384.3-227.6-385.5-228.9z"/>
	</g>
</g>
<g>
	<path d="M-289.6-191c-2.6,0-5.1-0.7-7.4-2c-1.6,0.8-3.4,1.2-5.2,1.2c-6.9,0-12.5-5.8-12.5-13s5.6-13,12.5-13c0.5,0,1,0,1.4,0.1
		c2.9-3.2,6.9-5,11.1-5c5.8,0,11.1,3.4,13.7,8.7c3.6,1.6,5.9,5.2,5.9,9.3c0,5.6-4.4,10.2-9.8,10.2c-0.1,0-0.2,0-0.3,0
		C-282.8-192.2-286.1-191-289.6-191z M-296.8-198.2l1.1,0.8c1.8,1.2,3.9,1.9,6.1,1.9c2.7,0,5.3-1,7.3-2.9l0.7-0.7l1,0.1
		c0.3,0,0.5,0.1,0.7,0.1c3,0,5.5-2.5,5.5-5.7c0-2.5-1.5-4.6-3.8-5.4l-1-0.3l-0.4-1c-1.7-4.2-5.7-6.9-10.1-6.9
		c-3.4,0-6.5,1.6-8.6,4.3l-0.9,1.1l-1.3-0.3c-0.6-0.1-1.2-0.2-1.8-0.2c-4.5,0-8.2,3.8-8.2,8.5s3.7,8.5,8.2,8.5
		c1.5,0,2.9-0.4,4.2-1.2L-296.8-198.2z"/>
	<g>
		<g>
			<path d="M-297.7-234.5c0-2.4-2-4.4-2.2-4.5l0,0l0,0l0,0l0,0c-0.2,0.1-2.2,2.1-2.2,4.5c0,1.6,1.2,2.3,2.2,2.3l0,0l0,0l0,0l0,0
				C-298.9-232.2-297.7-232.8-297.7-234.5z"/>
		</g>
		<g>
			<path d="M-315.6-220.4c-2.3,0-4.3,2-4.4,2.2l0,0l0,0l0,0l0,0c0.1,0.2,2,2.2,4.4,2.2c1.6,0,2.2-1.3,2.2-2.3l0,0l0,0l0,0l0,0
				C-313.5-219.1-314.1-220.4-315.6-220.4z"/>
		</g>
		<g>
			<path d="M-287.1-228.1c1.6-1.7,1.6-4.6,1.5-4.8l0,0l0,0l0,0l0,0c-0.2-0.1-3-0.1-4.6,1.6c-1.1,1.2-0.7,2.5,0,3.2l0,0l0,0l0,0l0,0
				C-289.5-227.4-288.2-226.9-287.1-228.1z"/>
		</g>
		<g>
			<path d="M-309.5-231.3c-1.6-1.7-4.4-1.7-4.6-1.6l0,0l0,0l0,0l0,0c-0.1,0.2-0.1,3.1,1.5,4.8c1.1,1.2,2.4,0.7,3.1,0l0,0l0,0l0,0
				l0,0C-308.8-228.8-308.3-230.1-309.5-231.3z"/>
		</g>
		<path d="M-299.1-216.9c4.5-3,6.9-4.2,9.2-4.5c-1.3-4.3-5.2-7.4-9.9-7.4c-5.7,0-10.4,4.8-10.4,10.7c0,1.7,0.4,3.3,1.1,4.7
			C-307.8-215-305-216.9-299.1-216.9z"/>
	</g>
</g>
<g>
	<g>
		<g>
			<path d="M-217.8-236.2c0-2-1.9-3.8-2.2-3.8l0,0l0,0l0,0l0,0c-0.2,0.1-2.2,1.8-2.2,3.8c0,1.4,1.2,1.9,2.2,1.9l0,0l0,0l0,0l0,0
				C-219-234.3-217.8-234.8-217.8-236.2z"/>
		</g>
		<g>
			<path d="M-235.7-224.2c-2.3,0-4.3,1.7-4.3,1.9l0,0l0,0l0,0l0,0c0.1,0.2,2,1.9,4.3,1.9c1.6,0,2.2-1.1,2.2-1.9l0,0l0,0l0,0l0,0
				C-233.5-223.1-234.1-224.2-235.7-224.2z"/>
		</g>
		<g>
			<path d="M-207.3-230.8c1.6-1.4,1.6-3.9,1.5-4.1l0,0l0,0l0,0l0,0c-0.2-0.1-3-0.1-4.6,1.4c-1.1,1-0.7,2.1,0,2.7l0,0l0,0l0,0l0,0
				C-209.7-230.2-208.4-229.8-207.3-230.8z"/>
		</g>
		<g>
			<path d="M-229.5-233.5c-1.6-1.4-4.4-1.4-4.6-1.4l0,0l0,0l0,0l0,0c-0.1,0.2-0.1,2.6,1.5,4.1c1.1,1,2.4,0.6,3.1,0l0,0l0,0l0,0l0,0
				C-228.9-231.3-228.4-232.5-229.5-233.5z"/>
		</g>
		<path d="M-219.3-221.3c4.4-2.5,6.8-3.5,9.1-3.8c-1.3-3.7-5.2-6.3-9.8-6.3c-5.7,0-10.3,4.1-10.3,9.1c0,1.4,0.4,2.8,1,4
			C-227.9-219.6-225.1-221.3-219.3-221.3z"/>
	</g>
	<g>
		<path d="M-199.3-196c-4.9,0-8.7-1.9-11.7-3.5c-2.8-1.4-4.6-2.3-6.1-1.8c-1.1,0.4-2.4-0.2-2.8-1.2c-0.4-1,0.2-2.1,1.3-2.4
			c3.4-1.1,6.6,0.5,9.7,2.1c4.4,2.2,8.9,4.5,15.7,1.6c1.1-0.5,2.4,0,2.9,0.9c0.5,1,0,2.1-1,2.5C-194.2-196.4-196.9-196-199.3-196z"
			/>
		<path d="M-199.3-202.7c-3.5,0-6.3-1.5-9.1-2.9c-2.5-1.3-4.8-2.5-7.3-2.5c-1.2,0-2.2-0.9-2.2-1.9c0-1.1,1-1.9,2.2-1.9
			c3.7,0,6.8,1.6,9.5,3c2.4,1.2,4.6,2.4,6.9,2.4c1.2,0,2.2,0.9,2.2,1.9S-198.1-202.7-199.3-202.7z"/>
		<path d="M-206.1-190c-0.4,0-0.9-0.1-1.2-0.3c-0.6-0.4-1.2-0.7-1.7-1.1c-3.9-2.4-6-3.8-10.6-3.2c-1.2,0.1-2.3-0.6-2.4-1.6
			c-0.2-1,0.7-2,1.9-2.2c6.3-0.8,9.6,1.3,13.7,3.9c0.5,0.3,1.1,0.7,1.7,1c1,0.6,1.2,1.8,0.5,2.7C-204.8-190.3-205.4-190-206.1-190z"
			/>
		<path d="M-195.9-219.1c-2.6-4.5-7.8-7.4-13.6-7.4c-4.2,0-8.2,1.5-11.1,4.2c-0.5-0.1-1-0.1-1.4-0.1c-6.9,0-12.5,4.9-12.5,11
			s5.6,11,12.5,11c1.6,0,3.2-0.3,4.7-0.8l-1.3-3.7c-1.1,0.4-2.2,0.7-3.4,0.7c-4.5,0-8.1-3.2-8.1-7.2s3.6-7.2,8.1-7.2
			c0.6,0,1.2,0.1,1.8,0.2l1.3,0.3l0.8-1c2.1-2.3,5.2-3.7,8.5-3.7c4.4,0,8.3,2.3,10,5.8l0.4,0.8l1,0.3c2.3,0.6,3.8,2.5,3.8,4.6
			c0,2.4-2.1,4.5-4.8,4.8v3.8c5.1-0.3,9.1-4,9.1-8.6C-190-214.7-192.3-217.8-195.9-219.1z"/>
	</g>
</g>
<g>
	<g>
		<path d="M-130-202.3c-2.4,0-4.7-0.5-6.8-1.5c-1.5,0.6-3.2,0.9-4.8,0.9c-6.4,0-11.5-4.6-11.5-10.2c0-5.6,5.2-10.2,11.5-10.2
			c0.4,0,0.9,0,1.3,0.1c2.7-2.5,6.3-3.9,10.3-3.9c5.4,0,10.2,2.7,12.6,6.9c3.3,1.3,5.4,4.1,5.4,7.3c0,4.4-4.1,8-9,8
			c-0.1,0-0.2,0-0.3,0C-123.8-203.2-126.8-202.3-130-202.3z M-136.6-207.9l1.1,0.6c1.7,1,3.6,1.5,5.6,1.5c2.5,0,4.9-0.8,6.7-2.3
			l0.7-0.5l0.9,0.1c0.3,0,0.5,0,0.7,0c2.8,0,5-2,5-4.4c0-1.9-1.4-3.7-3.5-4.2l-0.9-0.2l-0.4-0.8c-1.6-3.3-5.2-5.4-9.2-5.4
			c-3.1,0-6,1.2-7.9,3.4l-0.8,0.9l-1.2-0.2c-0.6-0.1-1.1-0.2-1.7-0.2c-4.1,0-7.5,3-7.5,6.7s3.4,6.7,7.5,6.7c1.3,0,2.7-0.3,3.9-1
			L-136.6-207.9z"/>
		<g>
			<g>
				<path d="M-137.4-236.5c0-1.9-1.8-3.5-2-3.5l0,0l0,0l0,0l0,0c-0.2,0.1-2,1.7-2,3.5c0,1.3,1.1,1.8,2,1.8l0,0l0,0l0,0l0,0
					C-138.6-234.7-137.4-235.2-137.4-236.5z"/>
			</g>
			<g>
				<path d="M-154-225.4c-2.1,0-3.9,1.6-4,1.8l0,0l0,0l0,0l0,0c0.1,0.2,1.9,1.8,4,1.8c1.5,0,2-1,2-1.8l0,0l0,0l0,0l0,0
					C-152-224.3-152.5-225.4-154-225.4z"/>
			</g>
			<g>
				<path d="M-127.7-231.4c1.5-1.3,1.5-3.6,1.4-3.8l0,0l0,0l0,0l0,0c-0.2-0.1-2.7-0.1-4.2,1.3c-1,0.9-0.6,2,0,2.5l0,0l0,0l0,0l0,0
					C-130-230.9-128.8-230.5-127.7-231.4z"/>
			</g>
			<g>
				<path d="M-148.3-233.9c-1.5-1.3-4.1-1.3-4.2-1.3l0,0l0,0l0,0l0,0c-0.1,0.2-0.1,2.4,1.4,3.8c1,0.9,2.2,0.5,2.8,0l0,0l0,0l0,0l0,0
					C-147.7-232-147.3-233-148.3-233.9z"/>
			</g>
			<path d="M-138.8-222.6c4.1-2.3,6.3-3.3,8.4-3.6c-1.2-3.4-4.8-5.9-9.1-5.9c-5.3,0-9.5,3.8-9.5,8.4c0,1.3,0.4,2.6,1,3.7
				C-146.8-221.1-144.2-222.7-138.8-222.6z"/>
		</g>
	</g>
	<ellipse cx="-132.1" cy="-198.8" rx="2" ry="1.8"/>
	<ellipse cx="-140.8" cy="-202.4" rx="2" ry="1.8"/>
	<ellipse cx="-123.1" cy="-202.4" rx="2" ry="1.8"/>
	<ellipse cx="-132.1" cy="-191.8" rx="2" ry="1.8"/>
	<ellipse cx="-140.8" cy="-195.3" rx="2" ry="1.8"/>
	<ellipse cx="-123.1" cy="-195.3" rx="2" ry="1.8"/>
</g>
<g>
	<g>
		<path d="M-50-204c-2.4,0-4.7-0.5-6.8-1.5c-1.5,0.6-3.2,0.9-4.8,0.9c-6.4,0-11.5-4.4-11.5-9.7c0-5.4,5.2-9.7,11.5-9.7
			c0.4,0,0.9,0,1.3,0.1c2.7-2.4,6.3-3.8,10.3-3.8c5.4,0,10.2,2.6,12.6,6.6c3.3,1.2,5.4,3.9,5.4,7c0,4.2-4.1,7.6-9,7.6
			c-0.1,0-0.2,0-0.3,0C-43.8-204.9-46.8-204-50-204z M-56.6-209.4l1.1,0.6c1.7,0.9,3.6,1.4,5.6,1.4c2.5,0,4.9-0.8,6.7-2.2l0.7-0.5
			l0.9,0.1c0.3,0,0.5,0,0.7,0c2.8,0,5-1.9,5-4.2c0-1.9-1.4-3.5-3.5-4l-0.9-0.2l-0.4-0.7c-1.6-3.1-5.2-5.2-9.2-5.2
			c-3.1,0-6,1.2-7.9,3.2l-0.8,0.8l-1.2-0.2c-0.6-0.1-1.1-0.2-1.7-0.2c-4.1,0-7.5,2.8-7.5,6.3s3.4,6.3,7.5,6.3c1.3,0,2.7-0.3,3.9-0.9
			L-56.6-209.4z"/>
		<g>
			<g>
				<path d="M-57.4-236.6c0-1.8-1.8-3.3-2-3.4l0,0l0,0l0,0l0,0c-0.2,0.1-2,1.6-2,3.4c0,1.2,1.1,1.7,2,1.7l0,0l0,0l0,0l0,0
					C-58.6-234.9-57.4-235.4-57.4-236.6z"/>
			</g>
			<g>
				<path d="M-74-226c-2.1,0-3.9,1.5-4,1.7l0,0l0,0l0,0l0,0c0.1,0.2,1.9,1.7,4,1.7c1.5,0,2-1,2-1.7l0,0l0,0l0,0l0,0
					C-72-225.1-72.5-226-74-226z"/>
			</g>
			<g>
				<path d="M-47.7-231.8c1.5-1.3,1.5-3.4,1.4-3.6l0,0l0,0l0,0l0,0c-0.2-0.1-2.7-0.1-4.2,1.2c-1,0.9-0.6,1.9,0,2.4l0,0l0,0l0,0l0,0
					C-50-231.3-48.8-230.9-47.7-231.8z"/>
			</g>
			<g>
				<path d="M-68.3-234.2c-1.5-1.3-4.1-1.3-4.2-1.2l0,0l0,0l0,0l0,0c-0.1,0.2-0.1,2.3,1.4,3.6c1,0.9,2.2,0.5,2.8,0l0,0l0,0l0,0l0,0
					C-67.7-232.3-67.3-233.3-68.3-234.2z"/>
			</g>
			<path d="M-58.8-223.4c4.1-2.2,6.3-3.1,8.4-3.4c-1.2-3.2-4.8-5.6-9.1-5.6c-5.3,0-9.5,3.6-9.5,8c0,1.3,0.4,2.5,1,3.5
				C-66.8-222-64.2-223.5-58.8-223.4z"/>
		</g>
	</g>
	<path d="M-52.4-196.7c-1.1,0-2,0.8-2,1.7v3.3c0,0.9,0.9,1.7,2,1.7s2-0.8,2-1.7v-3.3C-50.4-196-51.3-196.7-52.4-196.7z"/>
	<path d="M-52.4-206c-1.1,0-2,0.8-2,1.7v3.3c0,0.9,0.9,1.7,2,1.7s2-0.8,2-1.7v-3.3C-50.4-205.2-51.3-206-52.4-206z"/>
	<path d="M-61.4-200.1c-1.1,0-2,0.8-2,1.7v3.3c0,0.9,0.9,1.7,2,1.7s2-0.8,2-1.7v-3.3C-59.4-199.3-60.3-200.1-61.4-200.1z"/>
	<path d="M-43.4-200.1c-1.1,0-2,0.8-2,1.7v3.3c0,0.9,0.9,1.7,2,1.7s2-0.8,2-1.7v-3.3C-41.4-199.3-42.3-200.1-43.4-200.1z"/>
	<path d="M-63.4-206v1.7c0,0.9,0.9,1.7,2,1.7s2-0.8,2-1.7v-1.2C-60.8-205.3-62-205.5-63.4-206z"/>
	<path d="M-45.4-205.9v1.6c0,0.9,0.9,1.7,2,1.7s2-0.8,2-1.7v-3.1C-42.4-207-44.2-206.3-45.4-205.9z"/>
</g>
<g>
	<g>
		<path d="M30-202.9c-2.4,0-4.7-0.5-6.8-1.5c-1.5,0.6-3.2,0.9-4.8,0.9c-6.4,0-11.5-4.5-11.5-10s5.2-10,11.5-10c0.4,0,0.9,0,1.3,0.1
			c2.7-2.5,6.3-3.9,10.3-3.9c5.4,0,10.2,2.6,12.6,6.8c3.3,1.2,5.4,4,5.4,7.2c0,4.3-4.1,7.9-9,7.9c-0.1,0-0.2,0-0.3,0
			C36.2-203.8,33.2-202.9,30-202.9z M23.4-208.5l1.1,0.6c1.7,1,3.6,1.5,5.6,1.5c2.5,0,4.9-0.8,6.7-2.2l0.7-0.5l0.9,0.1
			c0.3,0,0.5,0,0.7,0c2.8,0,5-2,5-4.4c0-1.9-1.4-3.6-3.5-4.2l-0.9-0.2l-0.4-0.7c-1.6-3.2-5.2-5.3-9.2-5.3c-3.1,0-6,1.2-7.9,3.3
			l-0.8,0.9l-1.2-0.2c-0.6-0.1-1.1-0.2-1.7-0.2c-4.1,0-7.5,2.9-7.5,6.5s3.4,6.5,7.5,6.5c1.3,0,2.7-0.3,3.9-0.9L23.4-208.5z"/>
		<g>
			<g>
				<path d="M22.6-236.5c0-1.8-1.8-3.4-2-3.5l0,0l0,0l0,0l0,0c-0.2,0.1-2,1.6-2,3.5c0,1.3,1.1,1.7,2,1.7l0,0l0,0l0,0l0,0
					C21.4-234.8,22.6-235.2,22.6-236.5z"/>
			</g>
			<g>
				<path d="M6-225.6c-2.1,0-3.9,1.6-4,1.7l0,0l0,0l0,0l0,0c0.1,0.2,1.9,1.7,4,1.7c1.5,0,2-1,2-1.7l0,0l0,0l0,0l0,0
					C8-224.6,7.5-225.6,6-225.6z"/>
			</g>
			<g>
				<path d="M32.3-231.6c1.5-1.3,1.5-3.5,1.4-3.7l0,0l0,0l0,0l0,0c-0.2-0.1-2.7-0.1-4.2,1.2c-1,0.9-0.6,1.9,0,2.5l0,0l0,0l0,0l0,0
					C30-231,31.2-230.7,32.3-231.6z"/>
			</g>
			<g>
				<path d="M11.7-234c-1.5-1.3-4.1-1.3-4.2-1.2l0,0l0,0l0,0l0,0c-0.1,0.2-0.1,2.4,1.4,3.7c1,0.9,2.2,0.5,2.8,0l0,0l0,0l0,0l0,0
					C12.3-232.1,12.7-233.1,11.7-234z"/>
			</g>
			<path d="M21.2-222.9c4.1-2.3,6.3-3.2,8.4-3.5c-1.2-3.3-4.8-5.8-9.1-5.8c-5.3,0-9.5,3.7-9.5,8.3c0,1.3,0.4,2.5,1,3.6
				C13.2-221.4,15.8-222.9,21.2-222.9z"/>
		</g>
	</g>
	<ellipse cx="37.5" cy="-191.7" rx="2" ry="1.7"/>
	<ellipse cx="27.5" cy="-195.2" rx="2" ry="1.7"/>
	<ellipse cx="43.6" cy="-195.2" rx="2" ry="1.7"/>
	<g>
		<polygon points="35.8,-190.9 27.7,-203.9 31.3,-205.6 39.3,-192.6 		"/>
	</g>
	<g>
		<polygon points="41.8,-194.4 35.1,-205.2 38.7,-206.8 45.3,-196.1 		"/>
	</g>
	<g>
		<polygon points="25.7,-194.4 19.1,-205.2 22.6,-206.8 29.3,-196.1 		"/>
	</g>
</g>
<g>
	<g>
		<path d="M28.1-129.1c-2.9,0-5.7-0.6-8.2-1.8c-1.8,0.7-3.8,1.1-5.9,1.1c-7.7,0-14-5.3-14-11.9c0-6.5,6.3-11.9,14-11.9
			c0.5,0,1.1,0,1.6,0.1c3.2-2.9,7.7-4.6,12.5-4.6c6.5,0,12.4,3.1,15.3,8c4,1.5,6.6,4.8,6.6,8.5c0,5.1-4.9,9.3-11,9.3
			c-0.1,0-0.2,0-0.3,0C35.7-130.2,32-129.1,28.1-129.1z M20-135.7l1.3,0.7c2,1.1,4.4,1.7,6.8,1.7c3,0,5.9-0.9,8.2-2.6l0.8-0.6
			l1.1,0.1c0.3,0,0.6,0.1,0.8,0.1c3.4,0,6.1-2.3,6.1-5.2c0-2.3-1.7-4.2-4.3-4.9l-1.1-0.3l-0.4-0.9c-1.9-3.8-6.3-6.3-11.2-6.3
			c-3.8,0-7.3,1.4-9.6,4l-1,1l-1.5-0.3c-0.7-0.1-1.4-0.2-2-0.2c-5,0-9.1,3.5-9.1,7.7c0,4.3,4.1,7.7,9.1,7.7c1.6,0,3.3-0.4,4.7-1.1
			L20-135.7z"/>
	</g>
	<path d="M25.2-120.2c-1.3,0-2.4,0.9-2.4,2.1v4.1c0,1.1,1.1,2.1,2.4,2.1s2.4-0.9,2.4-2.1v-4.1C27.6-119.3,26.5-120.2,25.2-120.2z"/>
	<path d="M25.2-131.5c-1.3,0-2.4,0.9-2.4,2.1v4.1c0,1.1,1.1,2.1,2.4,2.1s2.4-0.9,2.4-2.1v-4.1C27.6-130.6,26.5-131.5,25.2-131.5z"/>
	<path d="M14.2-124.3c-1.3,0-2.4,0.9-2.4,2.1v4.1c0,1.1,1.1,2.1,2.4,2.1s2.4-0.9,2.4-2.1v-4.1C16.6-123.3,15.6-124.3,14.2-124.3z"/>
	<path d="M36.2-124.3c-1.3,0-2.4,0.9-2.4,2.1v4.1c0,1.1,1.1,2.1,2.4,2.1s2.4-0.9,2.4-2.1v-4.1C38.6-123.3,37.5-124.3,36.2-124.3z"/>
	<path d="M11.8-131.5v2.1c0,1.1,1.1,2.1,2.4,2.1s2.4-0.9,2.4-2.1v-1.4C15-130.6,13.5-130.8,11.8-131.5z"/>
	<path d="M33.7-131.3v1.9c0,1.1,1.1,2.1,2.4,2.1s2.4-0.9,2.4-2.1v-3.8C37.3-132.8,35.2-131.9,33.7-131.3z"/>
</g>
<g>
	<g>
		<path d="M-51.9-127.2c-2.9,0-5.7-0.7-8.2-1.9c-1.8,0.8-3.8,1.2-5.9,1.2c-7.7,0-14-5.7-14-12.6c0-7,6.3-12.6,14-12.6
			c0.5,0,1.1,0,1.6,0.1c3.2-3.1,7.7-4.9,12.5-4.9c6.5,0,12.4,3.3,15.3,8.5c4,1.6,6.6,5.1,6.6,9.1c0,5.5-4.9,9.9-11,9.9
			c-0.1,0-0.2,0-0.3,0C-44.3-128.4-48-127.2-51.9-127.2z M-60-134.2l1.3,0.8c2,1.2,4.4,1.9,6.8,1.9c3,0,5.9-1,8.2-2.8l0.8-0.7
			l1.1,0.1c0.3,0,0.6,0.1,0.8,0.1c3.4,0,6.1-2.5,6.1-5.5c0-2.4-1.7-4.5-4.3-5.3l-1.1-0.3l-0.4-0.9c-1.9-4.1-6.3-6.7-11.2-6.7
			c-3.8,0-7.3,1.5-9.6,4.2l-1,1.1l-1.5-0.3c-0.7-0.1-1.4-0.2-2-0.2c-5,0-9.1,3.7-9.1,8.2s4.1,8.2,9.1,8.2c1.6,0,3.3-0.4,4.7-1.2
			L-60-134.2z"/>
	</g>
	<ellipse cx="-54.4" cy="-122.9" rx="2.4" ry="2.2"/>
	<ellipse cx="-65" cy="-127.3" rx="2.4" ry="2.2"/>
	<ellipse cx="-43.4" cy="-127.3" rx="2.4" ry="2.2"/>
	<ellipse cx="-54.4" cy="-114.2" rx="2.4" ry="2.2"/>
	<ellipse cx="-65" cy="-118.5" rx="2.4" ry="2.2"/>
	<ellipse cx="-43.4" cy="-118.5" rx="2.4" ry="2.2"/>
</g>
<g>
	<g>
		<path d="M-120.4-119.5c-5.5,0-9.8-2.4-13.2-4.4c-3.2-1.8-5.2-2.9-6.9-2.3c-1.3,0.4-2.7-0.2-3.1-1.5c-0.5-1.3,0.2-2.6,1.5-3.1
			c3.9-1.4,7.4,0.7,10.9,2.6c4.9,2.8,10,5.7,17.7,2.1c1.2-0.6,2.7-0.1,3.2,1.1c0.6,1.2,0.1,2.6-1.2,3.2
			C-114.7-120.1-117.7-119.5-120.4-119.5z"/>
		<path d="M-120.4-128c-3.9,0-7.1-1.9-10.3-3.7c-2.8-1.6-5.4-3.1-8.2-3.1c-1.3,0-2.4-1.1-2.4-2.4c0-1.3,1.1-2.4,2.4-2.4
			c4.2,0,7.6,2,10.7,3.8c2.7,1.6,5.2,3,7.8,3c1.3,0,2.4,1.1,2.4,2.4C-118-129-119.1-128-120.4-128z"/>
		<path d="M-128.2-112c-0.5,0-1-0.1-1.4-0.4c-0.7-0.5-1.3-0.9-1.9-1.3c-4.3-3-6.7-4.7-11.9-4c-1.3,0.2-2.6-0.7-2.7-2.1
			c-0.2-1.3,0.7-2.5,2.1-2.7c7.1-1,10.8,1.6,15.4,4.9c0.6,0.4,1.2,0.9,1.9,1.3c1.1,0.8,1.4,2.3,0.6,3.4
			C-126.6-112.4-127.4-112-128.2-112z"/>
		<path d="M-116.6-148.7c-2.9-5.7-8.8-9.3-15.3-9.3c-4.8,0-9.2,1.9-12.5,5.3c-0.5-0.1-1.1-0.1-1.6-0.1c-7.7,0-14,6.2-14,13.8
			s6.3,13.8,14,13.8c1.8,0,3.6-0.4,5.3-1l-1.5-4.6c-1.2,0.5-2.5,0.8-3.8,0.8c-5,0-9.1-4-9.1-9s4.1-9,9.1-9c0.7,0,1.3,0.1,2,0.2
			l1.5,0.3l1-1.2c2.3-2.9,5.8-4.6,9.6-4.6c4.9,0,9.3,2.9,11.2,7.4l0.4,1l1.1,0.3c2.6,0.8,4.3,3.1,4.3,5.7c0,3.1-2.4,5.6-5.4,6v4.8
			c5.7-0.4,10.2-5.1,10.2-10.8C-110-143.1-112.6-147-116.6-148.7z"/>
	</g>
</g>
<g>
	<path d="M-211.9-117.5c-2.9,0-5.7-0.7-8.2-2.2c-1.8,0.9-3.8,1.3-5.9,1.3c-7.7,0-14-6.4-14-14.4c0-7.9,6.3-14.4,14-14.4
		c0.5,0,1.1,0,1.6,0.1c3.2-3.5,7.7-5.5,12.5-5.5c6.5,0,12.4,3.8,15.3,9.7c4,1.8,6.6,5.8,6.6,10.3c0,6.2-4.9,11.2-11,11.2
		c-0.1,0-0.2,0-0.3,0C-204.3-118.8-208-117.5-211.9-117.5z M-220-125.5l1.3,0.9c2,1.4,4.4,2.1,6.8,2.1c3,0,5.9-1.1,8.2-3.2l0.8-0.8
		l1.1,0.2c0.3,0,0.6,0.1,0.8,0.1c3.4,0,6.1-2.8,6.1-6.3c0-2.7-1.7-5.1-4.3-6l-1.1-0.3l-0.4-1.1c-1.9-4.6-6.3-7.6-11.2-7.6
		c-3.8,0-7.3,1.7-9.6,4.8l-1,1.2l-1.5-0.3c-0.7-0.2-1.4-0.2-2-0.2c-5,0-9.1,4.2-9.1,9.4s4.1,9.4,9.1,9.4c1.6,0,3.3-0.5,4.7-1.3
		L-220-125.5z"/>
</g>
<g>
	<g>
		<path d="M-290-122.7c-2.4,0-4.7-0.5-6.8-1.5c-1.5,0.6-3.2,0.9-4.8,0.9c-6.4,0-11.5-4.5-11.5-10.1c0-5.6,5.2-10.1,11.5-10.1
			c0.4,0,0.9,0,1.3,0.1c2.7-2.5,6.3-3.9,10.3-3.9c5.4,0,10.2,2.6,12.6,6.8c3.3,1.2,5.4,4.1,5.4,7.2c0,4.4-4.1,7.9-9,7.9
			c-0.1,0-0.2,0-0.3,0C-283.8-123.6-286.8-122.7-290-122.7z M-296.6-128.3l1.1,0.6c1.7,1,3.6,1.5,5.6,1.5c2.5,0,4.9-0.8,6.7-2.2
			l0.7-0.5l0.9,0.1c0.3,0,0.5,0,0.7,0c2.8,0,5-2,5-4.4c0-1.9-1.4-3.6-3.5-4.2l-0.9-0.2l-0.4-0.7c-1.6-3.3-5.2-5.4-9.2-5.4
			c-3.1,0-6,1.2-7.9,3.4l-0.8,0.9l-1.2-0.2c-0.6-0.1-1.1-0.2-1.7-0.2c-4.1,0-7.5,2.9-7.5,6.6c0,3.6,3.4,6.6,7.5,6.6
			c1.3,0,2.7-0.3,3.9-0.9L-296.6-128.3z"/>
		<g>
			<g>
				<path d="M-297.4-156.5c0-1.9-1.8-3.5-2-3.5l0,0l0,0l0,0l0,0c-0.2,0.1-2,1.6-2,3.5c0,1.3,1.1,1.8,2,1.8l0,0l0,0l0,0l0,0
					C-298.6-154.7-297.4-155.2-297.4-156.5z"/>
			</g>
			<g>
				<path d="M-314-145.5c-2.1,0-3.9,1.6-4,1.7l0,0l0,0l0,0l0,0c0.1,0.2,1.9,1.7,4,1.7c1.5,0,2-1,2-1.7l0,0l0,0l0,0l0,0
					C-312-144.5-312.5-145.5-314-145.5z"/>
			</g>
			<g>
				<path d="M-287.7-151.5c1.5-1.3,1.5-3.6,1.4-3.7l0,0l0,0l0,0l0,0c-0.2-0.1-2.7-0.1-4.2,1.2c-1,0.9-0.6,1.9,0,2.5l0,0l0,0l0,0l0,0
					C-290-151-288.8-150.6-287.7-151.5z"/>
			</g>
			<g>
				<path d="M-308.3-154c-1.5-1.3-4.1-1.3-4.2-1.2l0,0l0,0l0,0l0,0c-0.1,0.2-0.1,2.4,1.4,3.7c1,0.9,2.2,0.5,2.8,0l0,0l0,0l0,0l0,0
					C-307.7-152.1-307.3-153.1-308.3-154z"/>
			</g>
			<path d="M-298.8-142.8c4.1-2.3,6.3-3.3,8.4-3.5c-1.2-3.4-4.8-5.8-9.1-5.8c-5.3,0-9.5,3.7-9.5,8.3c0,1.3,0.4,2.5,1,3.6
				C-306.8-141.3-304.2-142.9-298.8-142.8z"/>
		</g>
	</g>
	<g>
		<path d="M-301.2-113.5c-0.4,0-0.8-0.3-0.8-0.7v-3.1c0-0.4,0.3-0.7,0.8-0.7l0,0c0.4,0,0.8,0.3,0.8,0.7v3.1
			C-300.5-113.7-300.8-113.5-301.2-113.5L-301.2-113.5z"/>
		<path d="M-303.3-114.4c-0.2-0.3-0.1-0.7,0.2-0.9l2.9-1.7c0.3-0.2,0.8-0.1,1,0.2l0,0c0.2,0.3,0.1,0.7-0.2,0.9l-2.9,1.7
			C-302.6-114.1-303.1-114.1-303.3-114.4L-303.3-114.4z"/>
		<path d="M-303.3-116.9c-0.2,0.3-0.1,0.7,0.2,0.9l2.9,1.7c0.3,0.2,0.8,0.1,1-0.2l0,0c0.2-0.3,0.1-0.7-0.2-0.9l-2.9-1.7
			C-302.6-117.2-303.1-117.2-303.3-116.9L-303.3-116.9z"/>
	</g>
	<g>
		<path d="M-283.5-113.5c-0.4,0-0.8-0.3-0.8-0.7v-3.1c0-0.4,0.3-0.7,0.8-0.7l0,0c0.4,0,0.8,0.3,0.8,0.7v3.1
			C-282.7-113.7-283.1-113.5-283.5-113.5L-283.5-113.5z"/>
		<path d="M-285.6-114.4c-0.2-0.3-0.1-0.7,0.2-0.9l2.9-1.7c0.3-0.2,0.8-0.1,1,0.2l0,0c0.2,0.3,0.1,0.7-0.2,0.9l-2.9,1.7
			C-284.9-114.1-285.4-114.1-285.6-114.4L-285.6-114.4z"/>
		<path d="M-285.6-116.9c-0.2,0.3-0.1,0.7,0.2,0.9l2.9,1.7c0.3,0.2,0.8,0.1,1-0.2l0,0c0.2-0.3,0.1-0.7-0.2-0.9l-2.9-1.7
			C-284.9-117.2-285.4-117.2-285.6-116.9L-285.6-116.9z"/>
	</g>
	<g>
		<path d="M-292.5-110c-0.4,0-0.8-0.3-0.8-0.7v-3.1c0-0.4,0.3-0.7,0.8-0.7l0,0c0.4,0,0.8,0.3,0.8,0.7v3.1
			C-291.8-110.3-292.1-110-292.5-110L-292.5-110z"/>
		<path d="M-294.6-111c-0.2-0.3-0.1-0.7,0.2-0.9l2.9-1.7c0.3-0.2,0.8-0.1,1,0.2l0,0c0.2,0.3,0.1,0.7-0.2,0.9l-2.9,1.7
			C-293.9-110.6-294.4-110.7-294.6-111L-294.6-111z"/>
		<path d="M-294.6-113.4c-0.2,0.3-0.1,0.7,0.2,0.9l2.9,1.7c0.3,0.2,0.8,0.1,1-0.2l0,0c0.2-0.3,0.1-0.7-0.2-0.9l-2.9-1.7
			C-293.9-113.8-294.4-113.7-294.6-113.4L-294.6-113.4z"/>
	</g>
	<g>
		<path d="M-301.2-120.4c-0.4,0-0.8-0.3-0.8-0.7v-3.1c0-0.4,0.3-0.7,0.8-0.7l0,0c0.4,0,0.8,0.3,0.8,0.7v3.1
			C-300.5-120.7-300.8-120.4-301.2-120.4L-301.2-120.4z"/>
		<path d="M-303.3-121.4c-0.2-0.3-0.1-0.7,0.2-0.9l2.9-1.7c0.3-0.2,0.8-0.1,1,0.2l0,0c0.2,0.3,0.1,0.7-0.2,0.9l-2.9,1.7
			C-302.6-121-303.1-121.1-303.3-121.4L-303.3-121.4z"/>
		<path d="M-303.3-123.8c-0.2,0.3-0.1,0.7,0.2,0.9l2.9,1.7c0.3,0.2,0.8,0.1,1-0.2l0,0c0.2-0.3,0.1-0.7-0.2-0.9l-2.9-1.7
			C-302.6-124.2-303.1-124.1-303.3-123.8L-303.3-123.8z"/>
	</g>
	<g>
		<path d="M-283.5-120.4c-0.4,0-0.8-0.3-0.8-0.7v-3.1c0-0.4,0.3-0.7,0.8-0.7l0,0c0.4,0,0.8,0.3,0.8,0.7v3.1
			C-282.7-120.7-283.1-120.4-283.5-120.4L-283.5-120.4z"/>
		<path d="M-285.6-121.4c-0.2-0.3-0.1-0.7,0.2-0.9l2.9-1.7c0.3-0.2,0.8-0.1,1,0.2l0,0c0.2,0.3,0.1,0.7-0.2,0.9l-2.9,1.7
			C-284.9-121-285.4-121.1-285.6-121.4L-285.6-121.4z"/>
		<path d="M-285.6-123.8c-0.2,0.3-0.1,0.7,0.2,0.9l2.9,1.7c0.3,0.2,0.8,0.1,1-0.2l0,0c0.2-0.3,0.1-0.7-0.2-0.9l-2.9-1.7
			C-284.9-124.2-285.4-124.1-285.6-123.8L-285.6-123.8z"/>
	</g>
	<g>
		<path d="M-292.5-117c-0.4,0-0.8-0.3-0.8-0.7v-3.1c0-0.4,0.3-0.7,0.8-0.7l0,0c0.4,0,0.8,0.3,0.8,0.7v3.1
			C-291.8-117.3-292.1-117-292.5-117L-292.5-117z"/>
		<path d="M-294.6-118c-0.2-0.3-0.1-0.7,0.2-0.9l2.9-1.7c0.3-0.2,0.8-0.1,1,0.2l0,0c0.2,0.3,0.1,0.7-0.2,0.9l-2.9,1.7
			C-293.9-117.6-294.4-117.7-294.6-118L-294.6-118z"/>
		<path d="M-294.6-120.4c-0.2,0.3-0.1,0.7,0.2,0.9l2.9,1.7c0.3,0.2,0.8,0.1,1-0.2l0,0c0.2-0.3,0.1-0.7-0.2-0.9l-2.9-1.7
			C-293.9-120.8-294.4-120.7-294.6-120.4L-294.6-120.4z"/>
	</g>
</g>
<g>
	<path d="M-370-120.8c-2.4,0-4.7-0.5-6.8-1.6c-1.5,0.6-3.2,1-4.8,1c-6.4,0-11.5-4.8-11.5-10.6c0-5.8,5.2-10.6,11.5-10.6
		c0.4,0,0.9,0,1.3,0.1c2.7-2.6,6.3-4.1,10.3-4.1c5.4,0,10.2,2.8,12.6,7.1c3.3,1.3,5.4,4.3,5.4,7.6c0,4.6-4.1,8.3-9,8.3
		c-0.1,0-0.2,0-0.3,0C-363.8-121.7-366.8-120.8-370-120.8z M-376.6-126.7l1.1,0.7c1.7,1,3.6,1.6,5.6,1.6c2.5,0,4.9-0.8,6.7-2.4
		l0.7-0.6l0.9,0.1c0.3,0,0.5,0,0.7,0c2.8,0,5-2.1,5-4.6c0-2-1.4-3.8-3.5-4.4l-0.9-0.3l-0.4-0.8c-1.6-3.4-5.2-5.6-9.2-5.6
		c-3.1,0-6,1.3-7.9,3.5l-0.8,0.9l-1.2-0.3c-0.6-0.1-1.1-0.2-1.7-0.2c-4.1,0-7.5,3.1-7.5,6.9c0,3.8,3.4,6.9,7.5,6.9
		c1.3,0,2.7-0.3,3.9-1L-376.6-126.7z"/>
	<g>
		<g>
			<path d="M-377.4-156.3c0-2-1.8-3.6-2-3.7l0,0l0,0l0,0l0,0c-0.2,0.1-2,1.7-2,3.7c0,1.3,1.1,1.8,2,1.8l0,0l0,0l0,0l0,0
				C-378.6-154.5-377.4-155-377.4-156.3z"/>
		</g>
		<g>
			<path d="M-394-144.8c-2.1,0-3.9,1.7-4,1.8l0,0l0,0l0,0l0,0c0.1,0.2,1.9,1.8,4,1.8c1.5,0,2-1,2-1.8l0,0l0,0l0,0l0,0
				C-392-143.7-392.5-144.8-394-144.8z"/>
		</g>
		<g>
			<path d="M-367.7-151.1c1.5-1.4,1.5-3.7,1.4-3.9l0,0l0,0l0,0l0,0c-0.2-0.1-2.7-0.1-4.2,1.3c-1,1-0.6,2,0,2.6l0,0l0,0l0,0l0,0
				C-370-150.5-368.8-150.1-367.7-151.1z"/>
		</g>
		<g>
			<path d="M-388.3-153.7c-1.5-1.4-4.1-1.4-4.2-1.3l0,0l0,0l0,0l0,0c-0.1,0.2-0.1,2.5,1.4,3.9c1,1,2.2,0.6,2.8,0l0,0l0,0l0,0l0,0
				C-387.7-151.6-387.3-152.7-388.3-153.7z"/>
		</g>
		<path d="M-378.8-141.9c4.1-2.4,6.3-3.4,8.4-3.7c-1.2-3.5-4.8-6.1-9.1-6.1c-5.3,0-9.5,3.9-9.5,8.8c0,1.4,0.4,2.7,1,3.8
			C-386.8-140.4-384.2-142-378.8-141.9z"/>
	</g>
	<g>
		<polygon points="-376.8,-122.4 -365.7,-110 -370,-122.4 		"/>
		<polygon points="-362.1,-119.2 -373.2,-131.6 -368.9,-119.2 		"/>
	</g>
</g>
<g>
	<path d="M-371.9-45.5c-2.9,0-5.7-0.7-8.2-2c-1.8,0.8-3.8,1.2-5.9,1.2c-7.7,0-14-6-14-13.3s6.3-13.3,14-13.3c0.5,0,1.1,0,1.6,0.1
		c3.2-3.3,7.7-5.1,12.5-5.1c6.5,0,12.4,3.5,15.3,9c4,1.6,6.6,5.4,6.6,9.6c0,5.8-4.9,10.4-11,10.4c-0.1,0-0.2,0-0.3,0
		C-364.3-46.7-368-45.5-371.9-45.5z M-380-52.9l1.3,0.8c2,1.3,4.4,2,6.8,2c3,0,5.9-1.1,8.2-3l0.8-0.7l1.1,0.1c0.3,0,0.6,0.1,0.8,0.1
		c3.4,0,6.1-2.6,6.1-5.8c0-2.5-1.7-4.8-4.3-5.5l-1.1-0.3l-0.4-1c-1.9-4.3-6.3-7.1-11.2-7.1c-3.8,0-7.3,1.6-9.6,4.4l-1,1.2L-384-68
		c-0.7-0.1-1.4-0.2-2-0.2c-5,0-9.1,3.9-9.1,8.7s4.1,8.7,9.1,8.7c1.6,0,3.3-0.4,4.7-1.2L-380-52.9z"/>
	<g>
		<polygon points="-380.2,-47.6 -366.7,-32 -371.9,-47.6 		"/>
		<polygon points="-362.3,-43.5 -375.8,-59.1 -370.6,-43.5 		"/>
	</g>
</g>
<g>
	<path d="M-291.9-45.5c-2.9,0-5.7-0.7-8.2-2c-1.8,0.8-3.8,1.2-5.9,1.2c-7.7,0-14-6-14-13.3s6.3-13.3,14-13.3c0.5,0,1.1,0,1.6,0.1
		c3.2-3.3,7.7-5.1,12.5-5.1c6.5,0,12.4,3.5,15.3,9c4,1.6,6.6,5.4,6.6,9.6c0,5.8-4.9,10.4-11,10.4c-0.1,0-0.2,0-0.3,0
		C-284.3-46.7-288-45.5-291.9-45.5z M-300-52.9l1.3,0.8c2,1.3,4.4,2,6.8,2c3,0,5.9-1.1,8.2-3l0.8-0.7l1.1,0.1c0.3,0,0.6,0.1,0.8,0.1
		c3.4,0,6.1-2.6,6.1-5.8c0-2.5-1.7-4.8-4.3-5.5l-1.1-0.3l-0.4-1c-1.9-4.3-6.3-7.1-11.2-7.1c-3.8,0-7.3,1.6-9.6,4.4l-1,1.2L-304-68
		c-0.7-0.1-1.4-0.2-2-0.2c-5,0-9.1,3.9-9.1,8.7s4.1,8.7,9.1,8.7c1.6,0,3.3-0.4,4.7-1.2L-300-52.9z"/>
	<g>
		<polygon points="-300.2,-47.6 -286.7,-32 -291.9,-47.6 		"/>
		<polygon points="-282.3,-43.5 -295.8,-59.1 -290.6,-43.5 		"/>
	</g>
	<g>
		<ellipse cx="-281.6" cy="-34.5" rx="2.4" ry="2.3"/>
		<ellipse cx="-284.1" cy="-39" rx="2.4" ry="2.3"/>
		<g>
			<polygon points="-283.8,-33.4 -286.3,-38 -281.9,-40.1 -279.5,-35.5 			"/>
		</g>
	</g>
	<g>
		<ellipse cx="-299.2" cy="-37.9" rx="2.4" ry="2.3"/>
		<ellipse cx="-301.7" cy="-42.5" rx="2.4" ry="2.3"/>
		<g>
			<polygon points="-301.4,-36.8 -303.9,-41.4 -299.5,-43.5 -297.1,-38.9 			"/>
		</g>
	</g>
	<g>
		<ellipse cx="-275.2" cy="-39.1" rx="2.4" ry="2.3"/>
		<ellipse cx="-277.6" cy="-43.6" rx="2.4" ry="2.3"/>
		<g>
			<polygon points="-277.4,-38 -279.8,-42.6 -275.5,-44.7 -273,-40.1 			"/>
		</g>
	</g>
</g>
<g>
	<g>
		<path d="M-211.9-47.7c-2.9,0-5.7-0.6-8.2-1.9c-1.8,0.8-3.8,1.1-5.9,1.1c-7.7,0-14-5.6-14-12.4c0-6.9,6.3-12.4,14-12.4
			c0.5,0,1.1,0,1.6,0.1c3.2-3.1,7.7-4.8,12.5-4.8c6.5,0,12.4,3.3,15.3,8.4c4,1.5,6.6,5,6.6,8.9c0,5.4-4.9,9.7-11,9.7
			c-0.1,0-0.2,0-0.3,0C-204.3-48.8-208-47.7-211.9-47.7z M-220-54.6l1.3,0.8c2,1.2,4.4,1.8,6.8,1.8c3,0,5.9-1,8.2-2.8l0.8-0.7
			l1.1,0.1c0.3,0,0.6,0.1,0.8,0.1c3.4,0,6.1-2.4,6.1-5.4c0-2.4-1.7-4.5-4.3-5.2l-1.1-0.3l-0.4-0.9c-1.9-4-6.3-6.6-11.2-6.6
			c-3.8,0-7.3,1.5-9.6,4.2l-1,1.1l-1.5-0.3c-0.7-0.1-1.4-0.2-2-0.2c-5,0-9.1,3.6-9.1,8.1s4.1,8.1,9.1,8.1c1.6,0,3.3-0.4,4.7-1.2
			L-220-54.6z"/>
	</g>
	<g>
		<path d="M-225.5-36.3c-0.5,0-0.9-0.4-0.9-0.8v-3.8c0-0.4,0.4-0.8,0.9-0.8l0,0c0.5,0,0.9,0.4,0.9,0.8v3.8
			C-224.6-36.6-225-36.3-225.5-36.3L-225.5-36.3z"/>
		<path d="M-228.1-37.5c-0.3-0.4-0.2-0.9,0.3-1.1l3.6-2.1c0.4-0.2,1-0.1,1.3,0.2l0,0c0.3,0.4,0.2,0.9-0.3,1.1l-3.6,2.1
			C-227.2-37-227.8-37.1-228.1-37.5L-228.1-37.5z"/>
		<path d="M-228.1-40.5c-0.3,0.4-0.2,0.9,0.3,1.1l3.6,2.1c0.4,0.2,1,0.1,1.3-0.2l0,0c0.3-0.4,0.2-0.9-0.3-1.1l-3.6-2.1
			C-227.2-40.9-227.8-40.8-228.1-40.5L-228.1-40.5z"/>
	</g>
	<g>
		<path d="M-204-36.3c-0.5,0-0.9-0.4-0.9-0.8v-3.8c0-0.4,0.4-0.8,0.9-0.8l0,0c0.5,0,0.9,0.4,0.9,0.8v3.8
			C-203.1-36.6-203.5-36.3-204-36.3L-204-36.3z"/>
		<path d="M-206.5-37.5c-0.3-0.4-0.2-0.9,0.3-1.1l3.6-2.1c0.4-0.2,1-0.1,1.3,0.2l0,0c0.3,0.4,0.2,0.9-0.3,1.1l-3.6,2.1
			C-205.7-37-206.2-37.1-206.5-37.5L-206.5-37.5z"/>
		<path d="M-206.5-40.5c-0.3,0.4-0.2,0.9,0.3,1.1l3.6,2.1c0.4,0.2,1,0.1,1.3-0.2l0,0c0.3-0.4,0.2-0.9-0.3-1.1l-3.6-2.1
			C-205.7-40.9-206.2-40.8-206.5-40.5L-206.5-40.5z"/>
	</g>
	<g>
		<path d="M-214.9-32c-0.5,0-0.9-0.4-0.9-0.8v-3.8c0-0.4,0.4-0.8,0.9-0.8l0,0c0.5,0,0.9,0.4,0.9,0.8v3.8
			C-214-32.4-214.4-32-214.9-32L-214.9-32z"/>
		<path d="M-217.5-33.2c-0.3-0.4-0.2-0.9,0.3-1.1l3.6-2.1c0.4-0.2,1-0.1,1.3,0.2l0,0c0.3,0.4,0.2,0.9-0.3,1.1l-3.6,2.1
			C-216.6-32.7-217.2-32.8-217.5-33.2L-217.5-33.2z"/>
		<path d="M-217.5-36.2c-0.3,0.4-0.2,0.9,0.3,1.1l3.6,2.1c0.4,0.2,1,0.1,1.3-0.2l0,0c0.3-0.4,0.2-0.9-0.3-1.1l-3.6-2.1
			C-216.6-36.7-217.2-36.6-217.5-36.2L-217.5-36.2z"/>
	</g>
	<g>
		<path d="M-225.5-44.9c-0.5,0-0.9-0.4-0.9-0.8v-3.8c0-0.4,0.4-0.8,0.9-0.8l0,0c0.5,0,0.9,0.4,0.9,0.8v3.8
			C-224.6-45.3-225-44.9-225.5-44.9L-225.5-44.9z"/>
		<path d="M-228.1-46.1c-0.3-0.4-0.2-0.9,0.3-1.1l3.6-2.1c0.4-0.2,1-0.1,1.3,0.2l0,0c0.3,0.4,0.2,0.9-0.3,1.1l-3.6,2.1
			C-227.2-45.6-227.8-45.7-228.1-46.1L-228.1-46.1z"/>
		<path d="M-228.1-49.1c-0.3,0.4-0.2,0.9,0.3,1.1l3.6,2.1c0.4,0.2,1,0.1,1.3-0.2l0,0c0.3-0.4,0.2-0.9-0.3-1.1l-3.6-2.1
			C-227.2-49.6-227.8-49.5-228.1-49.1L-228.1-49.1z"/>
	</g>
	<g>
		<path d="M-204-44.9c-0.5,0-0.9-0.4-0.9-0.8v-3.8c0-0.4,0.4-0.8,0.9-0.8l0,0c0.5,0,0.9,0.4,0.9,0.8v3.8
			C-203.1-45.3-203.5-44.9-204-44.9L-204-44.9z"/>
		<path d="M-206.5-46.1c-0.3-0.4-0.2-0.9,0.3-1.1l3.6-2.1c0.4-0.2,1-0.1,1.3,0.2l0,0c0.3,0.4,0.2,0.9-0.3,1.1l-3.6,2.1
			C-205.7-45.6-206.2-45.7-206.5-46.1L-206.5-46.1z"/>
		<path d="M-206.5-49.1c-0.3,0.4-0.2,0.9,0.3,1.1l3.6,2.1c0.4,0.2,1,0.1,1.3-0.2l0,0c0.3-0.4,0.2-0.9-0.3-1.1l-3.6-2.1
			C-205.7-49.6-206.2-49.5-206.5-49.1L-206.5-49.1z"/>
	</g>
	<g>
		<path d="M-214.9-40.6c-0.5,0-0.9-0.4-0.9-0.8v-3.8c0-0.4,0.4-0.8,0.9-0.8l0,0c0.5,0,0.9,0.4,0.9,0.8v3.8
			C-214-41-214.4-40.6-214.9-40.6L-214.9-40.6z"/>
		<path d="M-217.5-41.8c-0.3-0.4-0.2-0.9,0.3-1.1l3.6-2.1c0.4-0.2,1-0.1,1.3,0.2l0,0c0.3,0.4,0.2,0.9-0.3,1.1l-3.6,2.1
			C-216.6-41.4-217.2-41.5-217.5-41.8L-217.5-41.8z"/>
		<path d="M-217.5-44.8c-0.3,0.4-0.2,0.9,0.3,1.1l3.6,2.1c0.4,0.2,1,0.1,1.3-0.2l0,0c0.3-0.4,0.2-0.9-0.3-1.1l-3.6-2.1
			C-216.6-45.3-217.2-45.2-217.5-44.8L-217.5-44.8z"/>
	</g>
</g>
<g>
	<g>
		<path d="M-131.9-47.9c-2.9,0-5.7-0.6-8.2-1.9c-1.8,0.7-3.8,1.1-5.9,1.1c-7.7,0-14-5.5-14-12.4c0-6.8,6.3-12.4,14-12.4
			c0.5,0,1.1,0,1.6,0.1c3.2-3,7.7-4.8,12.5-4.8c6.5,0,12.4,3.2,15.3,8.3c4,1.5,6.6,5,6.6,8.9c0,5.3-4.9,9.7-11,9.7
			c-0.1,0-0.2,0-0.3,0C-124.3-49-128-47.9-131.9-47.9z M-140-54.8l1.3,0.8c2,1.2,4.4,1.8,6.8,1.8c3,0,5.9-1,8.2-2.8l0.8-0.7l1.1,0.1
			c0.3,0,0.6,0.1,0.8,0.1c3.4,0,6.1-2.4,6.1-5.4c0-2.4-1.7-4.4-4.3-5.1l-1.1-0.3l-0.4-0.9c-1.9-4-6.3-6.6-11.2-6.6
			c-3.8,0-7.3,1.5-9.6,4.1l-1,1.1l-1.5-0.3c-0.7-0.1-1.4-0.2-2-0.2c-5,0-9.1,3.6-9.1,8.1c0,4.4,4.1,8.1,9.1,8.1
			c1.6,0,3.3-0.4,4.7-1.2L-140-54.8z"/>
	</g>
	<ellipse cx="-122.7" cy="-34.1" rx="2.4" ry="2.1"/>
	<ellipse cx="-134.9" cy="-38.4" rx="2.4" ry="2.1"/>
	<ellipse cx="-115.4" cy="-38.4" rx="2.4" ry="2.1"/>
	<g>
		<polygon points="-124.9,-33.1 -134.6,-49.2 -130.3,-51.2 -120.6,-35.2 		"/>
	</g>
	<g>
		<polygon points="-117.6,-37.4 -125.6,-50.7 -121.3,-52.7 -113.3,-39.5 		"/>
	</g>
	<g>
		<polygon points="-137.1,-37.4 -145.1,-50.7 -140.8,-52.7 -132.8,-39.5 		"/>
	</g>
</g>
<path d="M-55-72.5c-0.7,0-1.3,0-2,0.1c1.3,1.8,2,4,2,6.3C-55-60-59.9-55-66.1-55c-2.4,0-4.5-0.7-6.3-2c-0.1,0.7-0.1,1.3-0.1,2
	c0,9.7,7.8,17.5,17.5,17.5s17.5-7.8,17.5-17.5S-45.3-72.5-55-72.5z"/>
<g>
	<path d="M28.1-32c-2.9,0-5.7-0.8-8.2-2.3C18-33.4,16-32.9,14-32.9C6.3-32.9,0-39.7,0-48s6.3-15.1,14-15.1c0.5,0,1.1,0,1.6,0.1
		c3.2-3.7,7.7-5.8,12.5-5.8c6.5,0,12.4,4,15.3,10.2c4,1.9,6.6,6.1,6.6,10.9c0,6.5-4.9,11.8-11,11.8c-0.1,0-0.2,0-0.3,0
		C35.7-33.4,32-32,28.1-32z M20-40.4l1.3,0.9c2,1.5,4.4,2.2,6.8,2.2c3,0,5.9-1.2,8.2-3.4l0.8-0.8l1.1,0.2c0.3,0,0.6,0.1,0.8,0.1
		c3.4,0,6.1-3,6.1-6.6c0-2.9-1.7-5.4-4.3-6.3l-1.1-0.4l-0.4-1.1c-1.9-4.9-6.3-8-11.2-8c-3.8,0-7.3,1.8-9.6,5l-1,1.3L16-57.6
		c-0.7-0.2-1.4-0.3-2-0.3c-5,0-9.1,4.4-9.1,9.8S9-38.3,14-38.3c1.6,0,3.3-0.5,4.7-1.4L20-40.4z"/>
	<path d="M27.1-70.7C25.3-75,21.3-78,16.6-78c-0.9,0-1.8,0.1-2.7,0.4c0.7,1.2,1.2,2.7,1.2,4.2c0,4.4-3.3,7.9-7.3,7.9
		c-1,0-1.9-0.2-2.7-0.6c0,0.2,0,0.4,0,0.6c0,1.2,0.2,2.4,0.5,3.6c0.5,1.7,1.3,3.3,2.4,4.7c1.6-1.6,3.7-2.5,6.1-2.5
		c0.7,0,1.3,0.1,2,0.3l1.5,0.4l1-1.3c2.3-3.2,5.8-5,9.6-5h0.1l0,0C28.2-67.4,27.8-69.1,27.1-70.7z"/>
</g>
<g>
	<path d="M-372.9,7.6c-1.8-3.3-5.8-5.6-10.5-5.6c-0.9,0-1.8,0.1-2.7,0.3c0.7,0.9,1.2,2.1,1.2,3.3c0,3.3-3.3,6-7.3,6
		c-1,0-1.9-0.2-2.7-0.4c0,0.1,0,0.3,0,0.4c0,1,0.2,1.9,0.5,2.7c0.5,1.3,1.3,2.6,2.4,3.6c1.6-1.2,3.7-1.9,6.1-1.9
		c0.7,0,1.3,0.1,2,0.2l1.5,0.3l1-1c2.3-2.5,5.8-3.9,9.6-3.9h0.1l0,0C-371.8,10.1-372.2,8.8-372.9,7.6z"/>
	<g>
		<g>
			<path d="M-360.4,41.7c-5.5,0-9.8-2-13.2-3.7c-3.2-1.5-5.2-2.4-6.9-1.9c-1.3,0.4-2.7-0.2-3.1-1.2c-0.5-1,0.2-2.2,1.5-2.6
				c3.9-1.1,7.4,0.6,10.9,2.2c4.9,2.3,10,4.7,17.7,1.7c1.2-0.5,2.7,0,3.2,1c0.6,1,0.1,2.2-1.2,2.7
				C-354.7,41.2-357.7,41.7-360.4,41.7z"/>
			<path d="M-360.4,34.7c-3.9,0-7.1-1.6-10.3-3.1c-2.8-1.3-5.4-2.6-8.2-2.6c-1.3,0-2.4-0.9-2.4-2s1.1-2,2.4-2
				c4.2,0,7.6,1.7,10.7,3.2c2.7,1.3,5.2,2.5,7.8,2.5c1.3,0,2.4,0.9,2.4,2C-358,33.8-359.1,34.7-360.4,34.7z"/>
			<path d="M-368.2,48c-0.5,0-1-0.1-1.4-0.4c-0.7-0.4-1.3-0.8-1.9-1.1c-4.3-2.5-6.7-4-11.9-3.4c-1.3,0.1-2.6-0.6-2.7-1.7
				c-0.2-1.1,0.7-2.1,2.1-2.3c7.1-0.8,10.8,1.3,15.4,4.1c0.6,0.4,1.2,0.7,1.9,1.1c1.1,0.6,1.4,1.9,0.6,2.8
				C-366.6,47.7-367.4,48-368.2,48z"/>
			<path d="M-356.6,17.3c-2.9-4.8-8.8-7.8-15.3-7.8c-4.8,0-9.2,1.6-12.5,4.5c-0.5-0.1-1.1-0.1-1.6-0.1c-7.7,0-14,5.2-14,11.6
				s6.3,11.6,14,11.6c1.8,0,3.6-0.3,5.3-0.9l-1.5-3.9c-1.2,0.4-2.5,0.7-3.8,0.7c-5,0-9.1-3.4-9.1-7.6s4.1-7.5,9.1-7.5
				c0.7,0,1.3,0.1,2,0.2l1.5,0.3l1-1c2.3-2.5,5.8-3.9,9.6-3.9c4.9,0,9.3,2.4,11.2,6.2l0.4,0.9l1.1,0.3c2.6,0.7,4.3,2.6,4.3,4.8
				c0,2.6-2.4,4.7-5.4,5v4c5.7-0.3,10.2-4.2,10.2-9C-350,22-352.6,18.7-356.6,17.3z"/>
		</g>
	</g>
</g>
<g>
	<path d="M-293.1,5.6c-1.7-3.3-5.3-5.6-9.5-5.6c-0.8,0-1.6,0.1-2.4,0.3c0.7,0.9,1,2.1,1,3.3c0,3.4-2.9,6.1-6.6,6.1
		c-0.9,0-1.7-0.2-2.4-0.4c0,0.1,0,0.3,0,0.4c0,1,0.2,1.9,0.4,2.8c0.4,1.3,1.2,2.6,2.2,3.6c1.5-1.2,3.4-1.9,5.5-1.9
		c0.6,0,1.2,0.1,1.8,0.2l1.4,0.3l0.9-1c2.1-2.5,5.3-3.9,8.6-3.9h0.1l0,0C-292.1,8.2-292.5,6.8-293.1,5.6z"/>
	<g>
		<path d="M-292.2,36c-2.6,0-5.1-0.6-7.4-1.8c-1.7,0.7-3.4,1.1-5.3,1.1c-7,0-12.6-5.2-12.6-11.6s5.7-11.6,12.6-11.6
			c0.5,0,1,0,1.5,0.1c2.9-2.9,6.9-4.5,11.2-4.5c5.9,0,11.2,3.1,13.8,7.9c3.6,1.4,6,4.7,6,8.4c0,5-4.4,9.1-9.9,9.1
			c-0.1,0-0.2,0-0.3,0C-285.4,34.9-288.7,36-292.2,36z M-299.5,29.5l1.2,0.7c1.8,1.1,3.9,1.7,6.1,1.7c2.7,0,5.3-0.9,7.3-2.6l0.8-0.6
			l1,0.1c0.3,0,0.5,0.1,0.7,0.1c3,0,5.5-2.3,5.5-5.1c0-2.2-1.5-4.2-3.8-4.8l-1-0.3l-0.4-0.9c-1.7-3.8-5.7-6.2-10.1-6.2
			c-3.4,0-6.5,1.4-8.6,3.9l-0.9,1l-1.4-0.3c-0.6-0.1-1.2-0.2-1.8-0.2c-4.5,0-8.2,3.4-8.2,7.6s3.7,7.6,8.2,7.6c1.5,0,2.9-0.4,4.2-1.1
			L-299.5,29.5z"/>
	</g>
	<ellipse cx="-294.5" cy="39.9" rx="2.2" ry="2"/>
	<ellipse cx="-304" cy="35.9" rx="2.2" ry="2"/>
	<ellipse cx="-284.6" cy="35.9" rx="2.2" ry="2"/>
	<ellipse cx="-294.5" cy="48" rx="2.2" ry="2"/>
	<ellipse cx="-304" cy="44" rx="2.2" ry="2"/>
	<ellipse cx="-284.6" cy="44" rx="2.2" ry="2"/>
</g>
<g>
	<path d="M-213,5.3c-1.7-3.1-5.4-5.3-9.7-5.3c-0.9,0-1.7,0.1-2.5,0.3c0.7,0.9,1.1,2,1.1,3.1c0,3.2-3,5.8-6.7,5.8
		c-0.9,0-1.7-0.1-2.5-0.4c0,0.1,0,0.3,0,0.4c0,0.9,0.2,1.8,0.5,2.6c0.4,1.3,1.2,2.4,2.2,3.4c1.5-1.1,3.4-1.8,5.6-1.8
		c0.6,0,1.2,0.1,1.9,0.2l1.4,0.3l0.9-1c2.1-2.3,5.4-3.7,8.8-3.7h0.1l0,0C-212.1,7.8-212.4,6.5-213,5.3z"/>
	<g>
		<path d="M-212.1,34.1c-2.7,0-5.3-0.6-7.6-1.7c-1.7,0.7-3.5,1-5.4,1c-7.1,0-12.9-5-12.9-11c0-6.1,5.8-11,12.9-11c0.5,0,1,0,1.5,0.1
			c3-2.7,7.1-4.3,11.5-4.3c6,0,11.4,2.9,14.1,7.4c3.7,1.4,6.1,4.4,6.1,7.9c0,4.8-4.5,8.6-10.1,8.6c-0.1,0-0.2,0-0.3,0
			C-205.2,33.1-208.6,34.1-212.1,34.1z M-219.6,28l1.2,0.7c1.8,1.1,4,1.6,6.2,1.6c2.8,0,5.4-0.9,7.5-2.5l0.8-0.6l1,0.1
			c0.3,0,0.5,0,0.7,0c3.1,0,5.6-2.2,5.6-4.8c0-2.1-1.6-4-3.9-4.6l-1-0.3l-0.4-0.8c-1.8-3.6-5.8-5.9-10.3-5.9c-3.5,0-6.7,1.3-8.8,3.7
			l-0.9,1l-1.4-0.3c-0.6-0.1-1.3-0.2-1.9-0.2c-4.6,0-8.4,3.2-8.4,7.2s3.8,7.2,8.4,7.2c1.5,0,3-0.4,4.3-1L-219.6,28z"/>
	</g>
	<path d="M-214.8,42.4c-1.2,0-2.2,0.9-2.2,1.9v3.8c0,1.1,1,1.9,2.2,1.9s2.2-0.9,2.2-1.9v-3.8C-212.6,43.2-213.6,42.4-214.8,42.4z"/>
	<path d="M-214.8,31.9c-1.2,0-2.2,0.9-2.2,1.9v3.8c0,1.1,1,1.9,2.2,1.9s2.2-0.9,2.2-1.9v-3.8C-212.6,32.7-213.6,31.9-214.8,31.9z"/>
	<path d="M-224.9,38.6c-1.2,0-2.2,0.9-2.2,1.9v3.8c0,1.1,1,1.9,2.2,1.9s2.2-0.9,2.2-1.9v-3.8C-222.7,39.5-223.7,38.6-224.9,38.6z"/>
	<path d="M-204.7,38.6c-1.2,0-2.2,0.9-2.2,1.9v3.8c0,1.1,1,1.9,2.2,1.9s2.2-0.9,2.2-1.9v-3.8C-202.5,39.5-203.5,38.6-204.7,38.6z"/>
	<path d="M-227.2,31.9v1.9c0,1.1,1,1.9,2.2,1.9s2.2-0.9,2.2-1.9v-1.3C-224.2,32.7-225.6,32.5-227.2,31.9z"/>
	<path d="M-207,32v1.8c0,1.1,1,1.9,2.2,1.9s2.2-0.9,2.2-1.9v-3.6C-203.7,30.7-205.6,31.5-207,32z"/>
</g>
<g>
	<path d="M-133,5.5c-1.7-3.2-5.4-5.5-9.7-5.5c-0.9,0-1.7,0.1-2.5,0.3c0.7,0.9,1.1,2,1.1,3.2c0,3.3-3,6-6.7,6c-0.9,0-1.7-0.2-2.5-0.4
		c0,0.1,0,0.3,0,0.4c0,0.9,0.2,1.9,0.5,2.7c0.4,1.3,1.2,2.5,2.2,3.5c1.5-1.2,3.4-1.9,5.6-1.9c0.6,0,1.2,0.1,1.9,0.2l1.4,0.3l0.9-1
		c2.1-2.4,5.4-3.8,8.8-3.8h0.1l0,0C-132.1,8-132.4,6.7-133,5.5z"/>
	<g>
		<path d="M-132.1,35.3c-2.7,0-5.3-0.6-7.6-1.7c-1.7,0.7-3.5,1.1-5.4,1.1c-7.1,0-12.9-5.1-12.9-11.4s5.8-11.4,12.9-11.4
			c0.5,0,1,0,1.5,0.1c3-2.8,7.1-4.4,11.5-4.4c6,0,11.4,3,14.1,7.7c3.7,1.4,6.1,4.6,6.1,8.2c0,4.9-4.5,9-10.1,9c-0.1,0-0.2,0-0.3,0
			C-125.2,34.3-128.6,35.3-132.1,35.3z M-139.6,29l1.2,0.7c1.8,1.1,4,1.7,6.2,1.7c2.8,0,5.4-0.9,7.5-2.5l0.8-0.6l1,0.1
			c0.3,0,0.5,0.1,0.7,0.1c3.1,0,5.6-2.2,5.6-5c0-2.2-1.6-4.1-3.9-4.7l-1-0.3l-0.4-0.8c-1.8-3.7-5.8-6.1-10.3-6.1
			c-3.5,0-6.7,1.4-8.8,3.8l-0.9,1l-1.4-0.3c-0.6-0.1-1.3-0.2-1.9-0.2c-4.6,0-8.4,3.3-8.4,7.4s3.8,7.5,8.4,7.5c1.5,0,3-0.4,4.3-1.1
			L-139.6,29z"/>
	</g>
	<ellipse cx="-123.7" cy="48" rx="2.2" ry="2"/>
	<ellipse cx="-134.9" cy="44" rx="2.2" ry="2"/>
	<ellipse cx="-117" cy="44" rx="2.2" ry="2"/>
	<g>
		<polygon points="-125.7,49 -134.7,34.1 -130.7,32.3 -121.7,47.1 		"/>
	</g>
	<g>
		<polygon points="-119,45 -126.4,32.7 -122.4,30.8 -115,43.1 		"/>
	</g>
	<g>
		<polygon points="-136.9,45 -144.3,32.7 -140.4,30.8 -133,43.1 		"/>
	</g>
</g>
<g>
	<path d="M-53,5.9C-54.7,2.4-58.4,0-62.7,0c-0.9,0-1.7,0.1-2.5,0.3c0.7,1,1.1,2.2,1.1,3.4c0,3.5-3,6.4-6.7,6.4
		c-0.9,0-1.7-0.2-2.5-0.5c0,0.2,0,0.3,0,0.5c0,1,0.2,2,0.5,2.9c0.4,1.4,1.2,2.7,2.2,3.8c1.5-1.3,3.4-2,5.6-2c0.6,0,1.2,0.1,1.9,0.2
		l1.4,0.3l0.9-1.1c2.1-2.6,5.4-4.1,8.8-4.1h0.1l0,0C-52.1,8.6-52.4,7.1-53,5.9z"/>
	<path d="M-52.1,37.6c-2.7,0-5.3-0.6-7.6-1.8c-1.7,0.7-3.5,1.1-5.4,1.1c-7.1,0-12.9-5.5-12.9-12.2s5.8-12.2,12.9-12.2
		c0.5,0,1,0,1.5,0.1c3-3,7.1-4.7,11.5-4.7c6,0,11.4,3.2,14.1,8.2c3.7,1.5,6.1,4.9,6.1,8.8c0,5.3-4.5,9.5-10.1,9.5
		c-0.1,0-0.2,0-0.3,0C-45.2,36.5-48.6,37.6-52.1,37.6z M-59.6,30.9l1.2,0.7c1.9,1.2,4,1.8,6.2,1.8c2.8,0,5.4-1,7.5-2.7l0.8-0.7
		l1,0.1c0.3,0,0.5,0.1,0.7,0.1c3.1,0,5.6-2.4,5.6-5.3c0-2.3-1.6-4.4-3.9-5.1l-1-0.3l-0.4-0.9c-1.8-3.9-5.8-6.5-10.3-6.5
		c-3.5,0-6.7,1.5-8.8,4.1l-0.9,1.1l-1.4-0.3c-0.6-0.1-1.3-0.2-1.9-0.2c-4.6,0-8.4,3.6-8.4,7.9c0,4.4,3.8,7.9,8.4,7.9
		c1.5,0,3-0.4,4.3-1.1L-59.6,30.9z"/>
	<g>
		<polygon points="-59.8,35.7 -47.3,50 -52.1,35.7 		"/>
		<polygon points="-43.3,39.4 -55.7,25.2 -50.9,39.4 		"/>
	</g>
</g>
<g>
	<path d="M39.4,30.5C37.7,27.3,34,25,29.7,25c-0.9,0-1.7,0.1-2.5,0.3c0.7,0.9,1.1,2,1.1,3.2c0,3.3-3,6-6.7,6c-0.9,0-1.7-0.2-2.5-0.4
		c0,0.1,0,0.3,0,0.4c0,0.9,0.2,1.9,0.5,2.7c0.4,1.3,1.2,2.5,2.2,3.5c1.5-1.2,3.4-1.9,5.6-1.9c0.6,0,1.2,0.1,1.9,0.2l1.4,0.3l0.9-1
		c2.1-2.4,5.4-3.8,8.8-3.8h0.1l0,0C40.3,33.1,40,31.7,39.4,30.5z"/>
	<g>
		<path d="M40.3,60.5c-2.7,0-5.3-0.6-7.6-1.7c-1.7,0.7-3.5,1.1-5.4,1.1c-7.1-0.1-12.9-5.2-12.9-11.5c0-6.4,5.8-11.5,12.9-11.5
			c0.5,0,1,0,1.5,0.1c3-2.8,7.1-4.4,11.5-4.4c6,0,11.4,3,14.1,7.7c3.7,1.4,6.1,4.6,6.1,8.3c0,5-4.5,9-10.1,9c-0.1,0-0.2,0-0.3,0
			C47.2,59.5,43.8,60.5,40.3,60.5z M32.8,54.1l1.2,0.7c1.8,1.1,4,1.7,6.2,1.7c2.8,0,5.4-0.9,7.5-2.6l0.8-0.6l1,0.1
			c0.3,0,0.5,0.1,0.7,0.1c3.1,0,5.6-2.2,5.6-5c0-2.2-1.6-4.1-3.9-4.8l-1-0.3l-0.4-0.8c-1.8-3.7-5.8-6.1-10.3-6.1
			c-3.5,0-6.7,1.4-8.8,3.8l-0.9,1L29.1,41c-0.6-0.1-1.3-0.2-1.9-0.2c-4.6,0-8.4,3.4-8.4,7.5s3.8,7.5,8.4,7.5c1.5,0,3-0.4,4.3-1.1
			L32.8,54.1z"/>
	</g>
	<g>
		<path d="M27.7,71.1c-0.5,0-0.8-0.3-0.8-0.7v-3.5c0-0.4,0.4-0.7,0.8-0.7l0,0c0.5,0,0.8,0.3,0.8,0.7v3.5
			C28.6,70.7,28.2,71.1,27.7,71.1L27.7,71.1z"/>
		<path d="M25.4,69.9c-0.3-0.3-0.1-0.8,0.2-1l3.3-1.9c0.4-0.2,0.9-0.1,1.2,0.2l0,0c0.3,0.3,0.1,0.8-0.2,1l-3.3,1.9
			C26.1,70.4,25.6,70.3,25.4,69.9L25.4,69.9z"/>
		<path d="M25.4,67.2c-0.3,0.3-0.1,0.8,0.2,1l3.3,1.9c0.4,0.2,0.9,0.1,1.2-0.2l0,0c0.3-0.3,0.1-0.8-0.2-1L26.5,67
			C26.1,66.7,25.6,66.8,25.4,67.2L25.4,67.2z"/>
	</g>
	<g>
		<path d="M47.5,71.1c-0.5,0-0.8-0.3-0.8-0.7v-3.5c0-0.4,0.4-0.7,0.8-0.7l0,0c0.5,0,0.8,0.3,0.8,0.7v3.5
			C48.4,70.7,48,71.1,47.5,71.1L47.5,71.1z"/>
		<path d="M45.2,69.9c-0.3-0.3-0.1-0.8,0.2-1l3.3-1.9c0.4-0.2,0.9-0.1,1.2,0.2l0,0c0.3,0.3,0.1,0.8-0.2,1l-3.3,2
			C46,70.4,45.5,70.3,45.2,69.9L45.2,69.9z"/>
		<path d="M45.2,67.2c-0.3,0.3-0.1,0.8,0.2,1l3.3,1.9c0.4,0.2,0.9,0.1,1.2-0.2l0,0c0.3-0.3,0.1-0.8-0.2-1L46.4,67
			C46,66.7,45.5,66.8,45.2,67.2L45.2,67.2z"/>
	</g>
	<g>
		<path d="M37.4,75c-0.5,0-0.8-0.3-0.8-0.7v-3.5c0-0.4,0.4-0.7,0.8-0.7l0,0c0.5,0,0.8,0.3,0.8,0.7v3.5C38.3,74.7,37.9,75,37.4,75
			L37.4,75z"/>
		<path d="M35.1,73.9c-0.3-0.3-0.1-0.8,0.2-1l3.3-1.9c0.4-0.2,0.9-0.1,1.2,0.2l0,0c0.3,0.3,0.1,0.8-0.2,1l-3.3,1.9
			C35.9,74.3,35.4,74.2,35.1,73.9L35.1,73.9z"/>
		<path d="M35.1,71.1c-0.3,0.3-0.1,0.8,0.2,1l3.3,1.9c0.4,0.2,0.9,0.1,1.2-0.2l0,0c0.3-0.3,0.1-0.8-0.2-1l-3.3-1.9
			C35.9,70.7,35.4,70.8,35.1,71.1L35.1,71.1z"/>
	</g>
	<g>
		<path d="M27.7,63.1c-0.5,0-0.8-0.3-0.8-0.7v-3.5c0-0.4,0.4-0.7,0.8-0.7l0,0c0.5,0,0.8,0.3,0.8,0.7v3.5
			C28.6,62.8,28.2,63.1,27.7,63.1L27.7,63.1z"/>
		<path d="M25.4,62c-0.3-0.3-0.1-0.8,0.2-1l3.3-1.9c0.4-0.2,0.9-0.1,1.2,0.2l0,0c0.3,0.3,0.1,0.8-0.2,1l-3.3,1.9
			C26.1,62.4,25.6,62.3,25.4,62L25.4,62z"/>
		<path d="M25.4,59.2c-0.3,0.3-0.1,0.8,0.2,1l3.3,1.9c0.4,0.2,0.9,0.1,1.2-0.2l0,0c0.3-0.3,0.1-0.8-0.2-1L26.5,59
			C26.1,58.8,25.6,58.9,25.4,59.2L25.4,59.2z"/>
	</g>
	<g>
		<path d="M47.5,63.1c-0.5,0-0.8-0.3-0.8-0.7v-3.5c0-0.4,0.4-0.7,0.8-0.7l0,0c0.5,0,0.8,0.3,0.8,0.7v3.5
			C48.4,62.8,48,63.1,47.5,63.1L47.5,63.1z"/>
		<path d="M45.2,62c-0.3-0.3-0.1-0.8,0.2-1l3.3-1.9c0.4-0.2,0.9-0.1,1.2,0.2l0,0c0.3,0.3,0.1,0.8-0.2,1l-3.3,1.9
			C46,62.4,45.5,62.3,45.2,62L45.2,62z"/>
		<path d="M45.2,59.2c-0.3,0.3-0.1,0.8,0.2,1l3.3,1.9c0.4,0.2,0.9,0.1,1.2-0.2l0,0c0.3-0.3,0.1-0.8-0.2-1L46.4,59
			C46,58.8,45.5,58.9,45.2,59.2L45.2,59.2z"/>
	</g>
	<g>
		<path d="M37.4,67c-0.5,0-0.8-0.3-0.8-0.7v-3.5c0-0.4,0.4-0.7,0.8-0.7l0,0c0.5,0,0.8,0.3,0.8,0.7v3.5C38.3,66.7,37.9,67,37.4,67
			L37.4,67z"/>
		<path d="M35.1,65.9c-0.3-0.3-0.1-0.8,0.2-1l3.3-1.9c0.4-0.2,0.9-0.1,1.2,0.2l0,0c0.3,0.3,0.1,0.8-0.2,1l-3.3,1.9
			C35.9,66.3,35.4,66.3,35.1,65.9L35.1,65.9z"/>
		<path d="M35.1,63.2c-0.3,0.3-0.1,0.8,0.2,1l3.3,1.9c0.4,0.2,0.9,0.1,1.2-0.2l0,0c0.3-0.3,0.1-0.8-0.2-1L36.3,63
			C35.9,62.7,35.4,62.8,35.1,63.2L35.1,63.2z"/>
	</g>
</g>
</svg>
