<?xml version="1.0" encoding="utf-8"?>
<!-- Generator: Adobe Illustrator 18.0.0, SVG Export Plug-In . SVG Version: 6.00 Build 0)  -->
<!DOCTYPE svg PUBLIC "-//W3C//DTD SVG 1.1//EN" "http://www.w3.org/Graphics/SVG/1.1/DTD/svg11.dtd">
<svg version="1.1" id="Слой_1" xmlns="http://www.w3.org/2000/svg" xmlns:xlink="http://www.w3.org/1999/xlink" x="0px" y="0px"
	 viewBox="-320 -239 49.9 48" enable-background="new -320 -239 49.9 48" xml:space="preserve">
<g>
	<g>
		<path fill="#FFCC33" d="M-297.7-234.5c0-2.4-2-4.4-2.2-4.5l0,0l0,0l0,0l0,0c-0.2,0.1-2.2,2.1-2.2,4.5c0,1.6,1.2,2.3,2.2,2.3l0,0
			l0,0l0,0l0,0C-298.9-232.2-297.7-232.8-297.7-234.5z"/>
	</g>
	<g>
		<path fill="#FFCC33" d="M-315.6-220.4c-2.3,0-4.3,2-4.4,2.2l0,0l0,0l0,0l0,0c0.1,0.2,2,2.2,4.4,2.2c1.6,0,2.2-1.3,2.2-2.3l0,0l0,0
			l0,0l0,0C-313.5-219.1-314.1-220.4-315.6-220.4z"/>
	</g>
	<g>
		<path fill="#FFCC33" d="M-287.1-228.1c1.6-1.7,1.6-4.6,1.5-4.8l0,0l0,0l0,0l0,0c-0.2-0.1-3-0.1-4.6,1.6c-1.1,1.2-0.7,2.5,0,3.2
			l0,0l0,0l0,0l0,0C-289.5-227.4-288.2-226.9-287.1-228.1z"/>
	</g>
	<g>
		<path fill="#FFCC33" d="M-309.5-231.3c-1.6-1.7-4.4-1.7-4.6-1.6l0,0l0,0l0,0l0,0c-0.1,0.2-0.1,3.1,1.5,4.8c1.1,1.2,2.4,0.7,3.1,0
			l0,0l0,0l0,0l0,0C-308.8-228.8-308.3-230.1-309.5-231.3z"/>
	</g>
	<path fill="#FFCC33" d="M-299.1-216.9c4.5-3,6.9-4.2,9.2-4.5c-1.3-4.3-5.2-7.4-9.9-7.4c-5.7,0-10.4,4.8-10.4,10.7
		c0,1.7,0.4,3.3,1.1,4.7C-307.8-215-305-216.9-299.1-216.9z"/>
</g>
<path fill="#99CCFF" d="M-289.6-191c-2.6,0-5.1-0.7-7.4-2c-1.6,0.8-3.4,1.2-5.2,1.2c-6.9,0-12.5-5.8-12.5-13s5.6-13,12.5-13
	c0.5,0,1,0,1.4,0.1c2.9-3.2,6.9-5,11.1-5c5.8,0,11.1,3.4,13.7,8.7c3.6,1.6,5.9,5.2,5.9,9.3c0,5.6-4.4,10.2-9.8,10.2
	c-0.1,0-0.2,0-0.3,0C-282.8-192.2-286.1-191-289.6-191z M-296.8-198.2l1.1,0.8c1.8,1.2,3.9,1.9,6.1,1.9c2.7,0,5.3-1,7.3-2.9l0.7-0.7
	l1,0.1c0.3,0,0.5,0.1,0.7,0.1c3,0,5.5-2.5,5.5-5.7c0-2.5-1.5-4.6-3.8-5.4l-1-0.3l-0.4-1c-1.7-4.2-5.7-6.9-10.1-6.9
	c-3.4,0-6.5,1.6-8.6,4.3l-0.9,1.1l-1.3-0.3c-0.6-0.1-1.2-0.2-1.8-0.2c-4.5,0-8.2,3.8-8.2,8.5s3.7,8.5,8.2,8.5c1.5,0,2.9-0.4,4.2-1.2
	L-296.8-198.2z"/>
</svg>
