<?xml version="1.0" encoding="utf-8"?>
<!-- Generator: Adobe Illustrator 18.0.0, SVG Export Plug-In . SVG Version: 6.00 Build 0)  -->
<!DOCTYPE svg PUBLIC "-//W3C//DTD SVG 1.1//EN" "http://www.w3.org/Graphics/SVG/1.1/DTD/svg11.dtd">
<svg version="1.1" id="Слой_1" xmlns="http://www.w3.org/2000/svg" xmlns:xlink="http://www.w3.org/1999/xlink" x="0px" y="0px"
	 viewBox="-318 -160 46 50" enable-background="new -318 -160 46 50" xml:space="preserve">
<g>
	<g>
		<path fill="#FFCC33" d="M-297.4-156.5c0-1.9-1.8-3.5-2-3.5l0,0l0,0l0,0l0,0c-0.2,0.1-2,1.6-2,3.5c0,1.3,1.1,1.8,2,1.8l0,0l0,0l0,0
			l0,0C-298.6-154.7-297.4-155.2-297.4-156.5z"/>
	</g>
	<g>
		<path fill="#FFCC33" d="M-314-145.5c-2.1,0-3.9,1.6-4,1.7l0,0l0,0l0,0l0,0c0.1,0.2,1.9,1.7,4,1.7c1.5,0,2-1,2-1.7l0,0l0,0l0,0l0,0
			C-312-144.5-312.5-145.5-314-145.5z"/>
	</g>
	<g>
		<path fill="#FFCC33" d="M-287.7-151.5c1.5-1.3,1.5-3.6,1.4-3.7l0,0l0,0l0,0l0,0c-0.2-0.1-2.7-0.1-4.2,1.2c-1,0.9-0.6,1.9,0,2.5
			l0,0l0,0l0,0l0,0C-290-151-288.8-150.6-287.7-151.5z"/>
	</g>
	<g>
		<path fill="#FFCC33" d="M-308.3-154c-1.5-1.3-4.1-1.3-4.2-1.2l0,0l0,0l0,0l0,0c-0.1,0.2-0.1,2.4,1.4,3.7c1,0.9,2.2,0.5,2.8,0l0,0
			l0,0l0,0l0,0C-307.7-152.1-307.3-153.1-308.3-154z"/>
	</g>
	<path fill="#FFCC33" d="M-298.8-142.8c4.1-2.3,6.3-3.3,8.4-3.5c-1.2-3.4-4.8-5.8-9.1-5.8c-5.3,0-9.5,3.7-9.5,8.3
		c0,1.3,0.4,2.5,1,3.6C-306.8-141.3-304.2-142.9-298.8-142.8z"/>
</g>
<g>
	<path fill="#99CCFF" d="M-301.2-113.5c-0.4,0-0.8-0.3-0.8-0.7v-3.1c0-0.4,0.3-0.7,0.8-0.7l0,0c0.4,0,0.8,0.3,0.8,0.7v3.1
		C-300.5-113.7-300.8-113.5-301.2-113.5L-301.2-113.5z"/>
	<path fill="#99CCFF" d="M-303.3-114.4c-0.2-0.3-0.1-0.7,0.2-0.9l2.9-1.7c0.3-0.2,0.8-0.1,1,0.2l0,0c0.2,0.3,0.1,0.7-0.2,0.9
		l-2.9,1.7C-302.6-114.1-303.1-114.1-303.3-114.4L-303.3-114.4z"/>
	<path fill="#99CCFF" d="M-303.3-116.9c-0.2,0.3-0.1,0.7,0.2,0.9l2.9,1.7c0.3,0.2,0.8,0.1,1-0.2l0,0c0.2-0.3,0.1-0.7-0.2-0.9
		l-2.9-1.7C-302.6-117.2-303.1-117.2-303.3-116.9L-303.3-116.9z"/>
</g>
<g>
	<path fill="#99CCFF" d="M-283.5-113.5c-0.4,0-0.8-0.3-0.8-0.7v-3.1c0-0.4,0.3-0.7,0.8-0.7l0,0c0.4,0,0.8,0.3,0.8,0.7v3.1
		C-282.7-113.7-283.1-113.5-283.5-113.5L-283.5-113.5z"/>
	<path fill="#99CCFF" d="M-285.6-114.4c-0.2-0.3-0.1-0.7,0.2-0.9l2.9-1.7c0.3-0.2,0.8-0.1,1,0.2l0,0c0.2,0.3,0.1,0.7-0.2,0.9
		l-2.9,1.7C-284.9-114.1-285.4-114.1-285.6-114.4L-285.6-114.4z"/>
	<path fill="#99CCFF" d="M-285.6-116.9c-0.2,0.3-0.1,0.7,0.2,0.9l2.9,1.7c0.3,0.2,0.8,0.1,1-0.2l0,0c0.2-0.3,0.1-0.7-0.2-0.9
		l-2.9-1.7C-284.9-117.2-285.4-117.2-285.6-116.9L-285.6-116.9z"/>
</g>
<g>
	<path fill="#99CCFF" d="M-292.5-110c-0.4,0-0.8-0.3-0.8-0.7v-3.1c0-0.4,0.3-0.7,0.8-0.7l0,0c0.4,0,0.8,0.3,0.8,0.7v3.1
		C-291.8-110.3-292.1-110-292.5-110L-292.5-110z"/>
	<path fill="#99CCFF" d="M-294.6-111c-0.2-0.3-0.1-0.7,0.2-0.9l2.9-1.7c0.3-0.2,0.8-0.1,1,0.2l0,0c0.2,0.3,0.1,0.7-0.2,0.9l-2.9,1.7
		C-293.9-110.6-294.4-110.7-294.6-111L-294.6-111z"/>
	<path fill="#99CCFF" d="M-294.6-113.4c-0.2,0.3-0.1,0.7,0.2,0.9l2.9,1.7c0.3,0.2,0.8,0.1,1-0.2l0,0c0.2-0.3,0.1-0.7-0.2-0.9
		l-2.9-1.7C-293.9-113.8-294.4-113.7-294.6-113.4L-294.6-113.4z"/>
</g>
<g>
	<path fill="#99CCFF" d="M-301.2-120.4c-0.4,0-0.8-0.3-0.8-0.7v-3.1c0-0.4,0.3-0.7,0.8-0.7l0,0c0.4,0,0.8,0.3,0.8,0.7v3.1
		C-300.5-120.7-300.8-120.4-301.2-120.4L-301.2-120.4z"/>
	<path fill="#99CCFF" d="M-303.3-121.4c-0.2-0.3-0.1-0.7,0.2-0.9l2.9-1.7c0.3-0.2,0.8-0.1,1,0.2l0,0c0.2,0.3,0.1,0.7-0.2,0.9
		l-2.9,1.7C-302.6-121-303.1-121.1-303.3-121.4L-303.3-121.4z"/>
	<path fill="#99CCFF" d="M-303.3-123.8c-0.2,0.3-0.1,0.7,0.2,0.9l2.9,1.7c0.3,0.2,0.8,0.1,1-0.2l0,0c0.2-0.3,0.1-0.7-0.2-0.9
		l-2.9-1.7C-302.6-124.2-303.1-124.1-303.3-123.8L-303.3-123.8z"/>
</g>
<g>
	<path fill="#99CCFF" d="M-283.5-120.4c-0.4,0-0.8-0.3-0.8-0.7v-3.1c0-0.4,0.3-0.7,0.8-0.7l0,0c0.4,0,0.8,0.3,0.8,0.7v3.1
		C-282.7-120.7-283.1-120.4-283.5-120.4L-283.5-120.4z"/>
	<path fill="#99CCFF" d="M-285.6-121.4c-0.2-0.3-0.1-0.7,0.2-0.9l2.9-1.7c0.3-0.2,0.8-0.1,1,0.2l0,0c0.2,0.3,0.1,0.7-0.2,0.9
		l-2.9,1.7C-284.9-121-285.4-121.1-285.6-121.4L-285.6-121.4z"/>
	<path fill="#99CCFF" d="M-285.6-123.8c-0.2,0.3-0.1,0.7,0.2,0.9l2.9,1.7c0.3,0.2,0.8,0.1,1-0.2l0,0c0.2-0.3,0.1-0.7-0.2-0.9
		l-2.9-1.7C-284.9-124.2-285.4-124.1-285.6-123.8L-285.6-123.8z"/>
</g>
<g>
	<path fill="#99CCFF" d="M-292.5-117c-0.4,0-0.8-0.3-0.8-0.7v-3.1c0-0.4,0.3-0.7,0.8-0.7l0,0c0.4,0,0.8,0.3,0.8,0.7v3.1
		C-291.8-117.3-292.1-117-292.5-117L-292.5-117z"/>
	<path fill="#99CCFF" d="M-294.6-118c-0.2-0.3-0.1-0.7,0.2-0.9l2.9-1.7c0.3-0.2,0.8-0.1,1,0.2l0,0c0.2,0.3,0.1,0.7-0.2,0.9l-2.9,1.7
		C-293.9-117.6-294.4-117.7-294.6-118L-294.6-118z"/>
	<path fill="#99CCFF" d="M-294.6-120.4c-0.2,0.3-0.1,0.7,0.2,0.9l2.9,1.7c0.3,0.2,0.8,0.1,1-0.2l0,0c0.2-0.3,0.1-0.7-0.2-0.9
		l-2.9-1.7C-293.9-120.8-294.4-120.7-294.6-120.4L-294.6-120.4z"/>
</g>
<path fill="#99CCFF" d="M-290-122.7c-2.4,0-4.7-0.5-6.8-1.5c-1.5,0.6-3.2,0.9-4.8,0.9c-6.4,0-11.5-4.5-11.5-10.1
	c0-5.6,5.2-10.1,11.5-10.1c0.4,0,0.9,0,1.3,0.1c2.7-2.5,6.3-3.9,10.3-3.9c5.4,0,10.2,2.6,12.6,6.8c3.3,1.2,5.4,4.1,5.4,7.2
	c0,4.4-4.1,7.9-9,7.9c-0.1,0-0.2,0-0.3,0C-283.8-123.6-286.8-122.7-290-122.7z M-296.6-128.3l1.1,0.6c1.7,1,3.6,1.5,5.6,1.5
	c2.5,0,4.9-0.8,6.7-2.2l0.7-0.5l0.9,0.1c0.3,0,0.5,0,0.7,0c2.8,0,5-2,5-4.4c0-1.9-1.4-3.6-3.5-4.2l-0.9-0.2l-0.4-0.7
	c-1.6-3.3-5.2-5.4-9.2-5.4c-3.1,0-6,1.2-7.9,3.4l-0.8,0.9l-1.2-0.2c-0.6-0.1-1.1-0.2-1.7-0.2c-4.1,0-7.5,2.9-7.5,6.6
	c0,3.6,3.4,6.6,7.5,6.6c1.3,0,2.7-0.3,3.9-0.9L-296.6-128.3z"/>
</svg>
