<?xml version="1.0" encoding="utf-8"?>
<!-- Generator: Adobe Illustrator 18.0.0, SVG Export Plug-In . SVG Version: 6.00 Build 0)  -->
<!DOCTYPE svg PUBLIC "-//W3C//DTD SVG 1.1//EN" "http://www.w3.org/Graphics/SVG/1.1/DTD/svg11.dtd">
<svg version="1.1" id="Слой_1" xmlns="http://www.w3.org/2000/svg" xmlns:xlink="http://www.w3.org/1999/xlink" x="0px" y="0px"
	 viewBox="2 2 50 50" enable-background="new 2 2 50 50" xml:space="preserve">
<path fill="#FFFF99" d="M29,7.5C27.3,4.3,23.6,2,19.3,2c-0.9,0-1.7,0.1-2.5,0.3c0.7,0.9,1.1,2,1.1,3.2c0,3.3-3,6-6.7,6
	c-0.9,0-1.7-0.2-2.5-0.4c0,0.1,0,0.3,0,0.4c0,0.9,0.2,1.9,0.5,2.7c0.4,1.3,1.2,2.5,2.2,3.5c1.5-1.2,3.4-1.9,5.6-1.9
	c0.6,0,1.2,0.1,1.9,0.2l1.4,0.3l0.9-1c2.1-2.4,5.4-3.8,8.8-3.8h0.1l0,0C29.9,10.1,29.6,8.7,29,7.5z"/>
<g>
	<path fill="#99CCFF" d="M29.9,37.5c-2.7,0-5.3-0.6-7.6-1.7c-1.7,0.7-3.5,1.1-5.4,1.1C9.8,36.8,4,31.7,4,25.4
		C4,19,9.8,13.9,16.9,13.9c0.5,0,1,0,1.5,0.1c3-2.8,7.1-4.4,11.5-4.4c6,0,11.4,3,14.1,7.7c3.7,1.4,6.1,4.6,6.1,8.3c0,5-4.5,9-10.1,9
		c-0.1,0-0.2,0-0.3,0C36.8,36.5,33.4,37.5,29.9,37.5z M22.4,31.1l1.2,0.7c1.8,1.1,4,1.7,6.2,1.7c2.8,0,5.4-0.9,7.5-2.6l0.8-0.6
		l1,0.1c0.3,0,0.5,0.1,0.7,0.1c3.1,0,5.6-2.2,5.6-5c0-2.2-1.6-4.1-3.9-4.8l-1-0.3l-0.4-0.8c-1.8-3.7-5.8-6.1-10.3-6.1
		c-3.5,0-6.7,1.4-8.8,3.8l-0.9,1L18.7,18c-0.6-0.1-1.3-0.2-1.9-0.2c-4.6,0-8.4,3.4-8.4,7.5s3.8,7.5,8.4,7.5c1.5,0,3-0.4,4.3-1.1
		L22.4,31.1z"/>
</g>
<g>
	<path fill="#99CCFF" d="M17.3,48.1c-0.5,0-0.8-0.3-0.8-0.7v-3.5c0-0.4,0.4-0.7,0.8-0.7l0,0c0.5,0,0.8,0.3,0.8,0.7v3.5
		C18.2,47.7,17.8,48.1,17.3,48.1L17.3,48.1z"/>
	<path fill="#99CCFF" d="M15,46.9c-0.3-0.3-0.1-0.8,0.2-1l3.3-1.9c0.4-0.2,0.9-0.1,1.2,0.2l0,0c0.3,0.3,0.1,0.8-0.2,1l-3.3,1.9
		C15.7,47.4,15.2,47.3,15,46.9L15,46.9z"/>
	<path fill="#99CCFF" d="M15,44.2c-0.3,0.3-0.1,0.8,0.2,1l3.3,1.9c0.4,0.2,0.9,0.1,1.2-0.2l0,0c0.3-0.3,0.1-0.8-0.2-1L16.1,44
		C15.7,43.7,15.2,43.8,15,44.2L15,44.2z"/>
</g>
<g>
	<path fill="#99CCFF" d="M37.1,48.1c-0.5,0-0.8-0.3-0.8-0.7v-3.5c0-0.4,0.4-0.7,0.8-0.7l0,0c0.5,0,0.8,0.3,0.8,0.7v3.5
		C38,47.7,37.6,48.1,37.1,48.1L37.1,48.1z"/>
	<path fill="#99CCFF" d="M34.8,46.9c-0.3-0.3-0.1-0.8,0.2-1l3.3-1.9c0.4-0.2,0.9-0.1,1.2,0.2l0,0c0.3,0.3,0.1,0.8-0.2,1l-3.3,2
		C35.6,47.4,35.1,47.3,34.8,46.9L34.8,46.9z"/>
	<path fill="#99CCFF" d="M34.8,44.2c-0.3,0.3-0.1,0.8,0.2,1l3.3,1.9c0.4,0.2,0.9,0.1,1.2-0.2l0,0c0.3-0.3,0.1-0.8-0.2-1L36,44
		C35.6,43.7,35.1,43.8,34.8,44.2L34.8,44.2z"/>
</g>
<g>
	<path fill="#99CCFF" d="M27,52c-0.5,0-0.8-0.3-0.8-0.7v-3.5c0-0.4,0.4-0.7,0.8-0.7l0,0c0.5,0,0.8,0.3,0.8,0.7v3.5
		C27.9,51.7,27.5,52,27,52L27,52z"/>
	<path fill="#99CCFF" d="M24.7,50.9c-0.3-0.3-0.1-0.8,0.2-1l3.3-1.9c0.4-0.2,0.9-0.1,1.2,0.2l0,0c0.3,0.3,0.1,0.8-0.2,1l-3.3,1.9
		C25.5,51.3,25,51.2,24.7,50.9L24.7,50.9z"/>
	<path fill="#99CCFF" d="M24.7,48.1c-0.3,0.3-0.1,0.8,0.2,1l3.3,1.9c0.4,0.2,0.9,0.1,1.2-0.2l0,0c0.3-0.3,0.1-0.8-0.2-1l-3.3-1.9
		C25.5,47.7,25,47.8,24.7,48.1L24.7,48.1z"/>
</g>
<g>
	<path fill="#99CCFF" d="M17.3,40.1c-0.5,0-0.8-0.3-0.8-0.7v-3.5c0-0.4,0.4-0.7,0.8-0.7l0,0c0.5,0,0.8,0.3,0.8,0.7v3.5
		C18.2,39.8,17.8,40.1,17.3,40.1L17.3,40.1z"/>
	<path fill="#99CCFF" d="M15,39c-0.3-0.3-0.1-0.8,0.2-1l3.3-1.9c0.4-0.2,0.9-0.1,1.2,0.2l0,0c0.3,0.3,0.1,0.8-0.2,1l-3.3,1.9
		C15.7,39.4,15.2,39.3,15,39L15,39z"/>
	<path fill="#99CCFF" d="M15,36.2c-0.3,0.3-0.1,0.8,0.2,1l3.3,1.9c0.4,0.2,0.9,0.1,1.2-0.2l0,0c0.3-0.3,0.1-0.8-0.2-1L16.1,36
		C15.7,35.8,15.2,35.9,15,36.2L15,36.2z"/>
</g>
<g>
	<path fill="#99CCFF" d="M37.1,40.1c-0.5,0-0.8-0.3-0.8-0.7v-3.5c0-0.4,0.4-0.7,0.8-0.7l0,0c0.5,0,0.8,0.3,0.8,0.7v3.5
		C38,39.8,37.6,40.1,37.1,40.1L37.1,40.1z"/>
	<path fill="#99CCFF" d="M34.8,39c-0.3-0.3-0.1-0.8,0.2-1l3.3-1.9c0.4-0.2,0.9-0.1,1.2,0.2l0,0c0.3,0.3,0.1,0.8-0.2,1L36,39.2
		C35.6,39.4,35.1,39.3,34.8,39L34.8,39z"/>
	<path fill="#99CCFF" d="M34.8,36.2c-0.3,0.3-0.1,0.8,0.2,1l3.3,1.9c0.4,0.2,0.9,0.1,1.2-0.2l0,0c0.3-0.3,0.1-0.8-0.2-1L36,36
		C35.6,35.8,35.1,35.9,34.8,36.2L34.8,36.2z"/>
</g>
<g>
	<path fill="#99CCFF" d="M27,44c-0.5,0-0.8-0.3-0.8-0.7v-3.5c0-0.4,0.4-0.7,0.8-0.7l0,0c0.5,0,0.8,0.3,0.8,0.7v3.5
		C27.9,43.7,27.5,44,27,44L27,44z"/>
	<path fill="#99CCFF" d="M24.7,42.9c-0.3-0.3-0.1-0.8,0.2-1l3.3-1.9c0.4-0.2,0.9-0.1,1.2,0.2l0,0c0.3,0.3,0.1,0.8-0.2,1l-3.3,1.9
		C25.5,43.3,25,43.3,24.7,42.9L24.7,42.9z"/>
	<path fill="#99CCFF" d="M24.7,40.2c-0.3,0.3-0.1,0.8,0.2,1l3.3,1.9c0.4,0.2,0.9,0.1,1.2-0.2l0,0c0.3-0.3,0.1-0.8-0.2-1L25.9,40
		C25.5,39.7,25,39.8,24.7,40.2L24.7,40.2z"/>
</g>
</svg>
