<?xml version="1.0" encoding="utf-8"?>
<!-- Generator: Adobe Illustrator 18.0.0, SVG Export Plug-In . SVG Version: 6.00 Build 0)  -->
<!DOCTYPE svg PUBLIC "-//W3C//DTD SVG 1.1//EN" "http://www.w3.org/Graphics/SVG/1.1/DTD/svg11.dtd">
<svg version="1.1" id="Слой_1" xmlns="http://www.w3.org/2000/svg" xmlns:xlink="http://www.w3.org/1999/xlink" x="0px" y="0px"
	 viewBox="-80 -157.9 50 45.9" enable-background="new -80 -157.9 50 45.9" xml:space="preserve">
<g>
	<path fill="#99CCFF" d="M-51.9-127.2c-2.9,0-5.7-0.7-8.2-1.9c-1.8,0.8-3.8,1.2-5.9,1.2c-7.7,0-14-5.7-14-12.6c0-7,6.3-12.6,14-12.6
		c0.5,0,1.1,0,1.6,0.1c3.2-3.1,7.7-4.9,12.5-4.9c6.5,0,12.4,3.3,15.3,8.5c4,1.6,6.6,5.1,6.6,9.1c0,5.5-4.9,9.9-11,9.9
		c-0.1,0-0.2,0-0.3,0C-44.3-128.4-48-127.2-51.9-127.2z M-60-134.2l1.3,0.8c2,1.2,4.4,1.9,6.8,1.9c3,0,5.9-1,8.2-2.8l0.8-0.7
		l1.1,0.1c0.3,0,0.6,0.1,0.8,0.1c3.4,0,6.1-2.5,6.1-5.5c0-2.4-1.7-4.5-4.3-5.3l-1.1-0.3l-0.4-0.9c-1.9-4.1-6.3-6.7-11.2-6.7
		c-3.8,0-7.3,1.5-9.6,4.2l-1,1.1l-1.5-0.3c-0.7-0.1-1.4-0.2-2-0.2c-5,0-9.1,3.7-9.1,8.2s4.1,8.2,9.1,8.2c1.6,0,3.3-0.4,4.7-1.2
		L-60-134.2z"/>
</g>
<ellipse fill="#0066CC" cx="-54.4" cy="-122.9" rx="2.4" ry="2.2"/>
<ellipse fill="#0066CC" cx="-65" cy="-127.3" rx="2.4" ry="2.2"/>
<ellipse fill="#0066CC" cx="-43.4" cy="-127.3" rx="2.4" ry="2.2"/>
<ellipse fill="#0066CC" cx="-54.4" cy="-114.2" rx="2.4" ry="2.2"/>
<ellipse fill="#0066CC" cx="-65" cy="-118.5" rx="2.4" ry="2.2"/>
<ellipse fill="#0066CC" cx="-43.4" cy="-118.5" rx="2.4" ry="2.2"/>
</svg>
