<?xml version="1.0" encoding="utf-8"?>
<!-- Generator: Adobe Illustrator 18.0.0, SVG Export Plug-In . SVG Version: 6.00 Build 0)  -->
<!DOCTYPE svg PUBLIC "-//W3C//DTD SVG 1.1//EN" "http://www.w3.org/Graphics/SVG/1.1/DTD/svg11.dtd">
<svg version="1.1" id="Слой_1" xmlns="http://www.w3.org/2000/svg" xmlns:xlink="http://www.w3.org/1999/xlink" x="0px" y="0px"
	 viewBox="-240 -240 49.9 50" enable-background="new -240 -240 49.9 50" xml:space="preserve">
<g>
	<g>
		<path fill="#FFCC33" d="M-217.8-236.2c0-2-1.9-3.8-2.2-3.8l0,0l0,0l0,0l0,0c-0.2,0.1-2.2,1.8-2.2,3.8c0,1.4,1.2,1.9,2.2,1.9l0,0
			l0,0l0,0l0,0C-219-234.3-217.8-234.8-217.8-236.2z"/>
	</g>
	<g>
		<path fill="#FFCC33" d="M-235.7-224.2c-2.3,0-4.3,1.7-4.3,1.9l0,0l0,0l0,0l0,0c0.1,0.2,2,1.9,4.3,1.9c1.6,0,2.2-1.1,2.2-1.9l0,0
			l0,0l0,0l0,0C-233.5-223.1-234.1-224.2-235.7-224.2z"/>
	</g>
	<g>
		<path fill="#FFCC33" d="M-207.3-230.8c1.6-1.4,1.6-3.9,1.5-4.1l0,0l0,0l0,0l0,0c-0.2-0.1-3-0.1-4.6,1.4c-1.1,1-0.7,2.1,0,2.7l0,0
			l0,0l0,0l0,0C-209.7-230.2-208.4-229.8-207.3-230.8z"/>
	</g>
	<g>
		<path fill="#FFCC33" d="M-229.5-233.5c-1.6-1.4-4.4-1.4-4.6-1.4l0,0l0,0l0,0l0,0c-0.1,0.2-0.1,2.6,1.5,4.1c1.1,1,2.4,0.6,3.1,0
			l0,0l0,0l0,0l0,0C-228.9-231.3-228.4-232.5-229.5-233.5z"/>
	</g>
	<path fill="#FFCC33" d="M-219.3-221.3c4.4-2.5,6.8-3.5,9.1-3.8c-1.3-3.7-5.2-6.3-9.8-6.3c-5.7,0-10.3,4.1-10.3,9.1
		c0,1.4,0.4,2.8,1,4C-227.9-219.6-225.1-221.3-219.3-221.3z"/>
</g>
<g>
	<path fill="#99CCFF" d="M-199.3-196c-4.9,0-8.7-1.9-11.7-3.5c-2.8-1.4-4.6-2.3-6.1-1.8c-1.1,0.4-2.4-0.2-2.8-1.2
		c-0.4-1,0.2-2.1,1.3-2.4c3.4-1.1,6.6,0.5,9.7,2.1c4.4,2.2,8.9,4.5,15.7,1.6c1.1-0.5,2.4,0,2.9,0.9c0.5,1,0,2.1-1,2.5
		C-194.2-196.4-196.9-196-199.3-196z"/>
	<path fill="#99CCFF" d="M-199.3-202.7c-3.5,0-6.3-1.5-9.1-2.9c-2.5-1.3-4.8-2.5-7.3-2.5c-1.2,0-2.2-0.9-2.2-1.9
		c0-1.1,1-1.9,2.2-1.9c3.7,0,6.8,1.6,9.5,3c2.4,1.2,4.6,2.4,6.9,2.4c1.2,0,2.2,0.9,2.2,1.9S-198.1-202.7-199.3-202.7z"/>
	<path fill="#99CCFF" d="M-206.1-190c-0.4,0-0.9-0.1-1.2-0.3c-0.6-0.4-1.2-0.7-1.7-1.1c-3.9-2.4-6-3.8-10.6-3.2
		c-1.2,0.1-2.3-0.6-2.4-1.6c-0.2-1,0.7-2,1.9-2.2c6.3-0.8,9.6,1.3,13.7,3.9c0.5,0.3,1.1,0.7,1.7,1c1,0.6,1.2,1.8,0.5,2.7
		C-204.8-190.3-205.4-190-206.1-190z"/>
	<path fill="#99CCFF" d="M-195.9-219.1c-2.6-4.5-7.8-7.4-13.6-7.4c-4.2,0-8.2,1.5-11.1,4.2c-0.5-0.1-1-0.1-1.4-0.1
		c-6.9,0-12.5,4.9-12.5,11s5.6,11,12.5,11c1.6,0,3.2-0.3,4.7-0.8l-1.3-3.7c-1.1,0.4-2.2,0.7-3.4,0.7c-4.5,0-8.1-3.2-8.1-7.2
		s3.6-7.2,8.1-7.2c0.6,0,1.2,0.1,1.8,0.2l1.3,0.3l0.8-1c2.1-2.3,5.2-3.7,8.5-3.7c4.4,0,8.3,2.3,10,5.8l0.4,0.8l1,0.3
		c2.3,0.6,3.8,2.5,3.8,4.6c0,2.4-2.1,4.5-4.8,4.8v3.8c5.1-0.3,9.1-4,9.1-8.6C-190-214.7-192.3-217.8-195.9-219.1z"/>
</g>
</svg>
