<?xml version="1.0" encoding="utf-8"?>
<!-- Generator: Adobe Illustrator 18.0.0, SVG Export Plug-In . SVG Version: 6.00 Build 0)  -->
<!DOCTYPE svg PUBLIC "-//W3C//DTD SVG 1.1//EN" "http://www.w3.org/Graphics/SVG/1.1/DTD/svg11.dtd">
<svg version="1.1" id="Слой_1" xmlns="http://www.w3.org/2000/svg" xmlns:xlink="http://www.w3.org/1999/xlink" x="0px" y="0px"
	 viewBox="0 -158.1 50 46.2" enable-background="new 0 -158.1 50 46.2" xml:space="preserve">
<g>
	<path fill="#99CCFF" d="M28.1-129.1c-2.9,0-5.7-0.6-8.2-1.8c-1.8,0.7-3.8,1.1-5.9,1.1c-7.7,0-14-5.3-14-11.9
		c0-6.5,6.3-11.9,14-11.9c0.5,0,1.1,0,1.6,0.1c3.2-2.9,7.7-4.6,12.5-4.6c6.5,0,12.4,3.1,15.3,8c4,1.5,6.6,4.8,6.6,8.5
		c0,5.1-4.9,9.3-11,9.3c-0.1,0-0.2,0-0.3,0C35.7-130.2,32-129.1,28.1-129.1z M20-135.7l1.3,0.7c2,1.1,4.4,1.7,6.8,1.7
		c3,0,5.9-0.9,8.2-2.6l0.8-0.6l1.1,0.1c0.3,0,0.6,0.1,0.8,0.1c3.4,0,6.1-2.3,6.1-5.2c0-2.3-1.7-4.2-4.3-4.9l-1.1-0.3l-0.4-0.9
		c-1.9-3.8-6.3-6.3-11.2-6.3c-3.8,0-7.3,1.4-9.6,4l-1,1l-1.5-0.3c-0.7-0.1-1.4-0.2-2-0.2c-5,0-9.1,3.5-9.1,7.7
		c0,4.3,4.1,7.7,9.1,7.7c1.6,0,3.3-0.4,4.7-1.1L20-135.7z"/>
</g>
<path fill="#0066CC" d="M25.2-120.2c-1.3,0-2.4,0.9-2.4,2.1v4.1c0,1.1,1.1,2.1,2.4,2.1s2.4-0.9,2.4-2.1v-4.1
	C27.6-119.3,26.5-120.2,25.2-120.2z"/>
<path fill="#0066CC" d="M25.2-131.5c-1.3,0-2.4,0.9-2.4,2.1v4.1c0,1.1,1.1,2.1,2.4,2.1s2.4-0.9,2.4-2.1v-4.1
	C27.6-130.6,26.5-131.5,25.2-131.5z"/>
<path fill="#0066CC" d="M14.2-124.3c-1.3,0-2.4,0.9-2.4,2.1v4.1c0,1.1,1.1,2.1,2.4,2.1s2.4-0.9,2.4-2.1v-4.1
	C16.6-123.3,15.6-124.3,14.2-124.3z"/>
<path fill="#0066CC" d="M36.2-124.3c-1.3,0-2.4,0.9-2.4,2.1v4.1c0,1.1,1.1,2.1,2.4,2.1s2.4-0.9,2.4-2.1v-4.1
	C38.6-123.3,37.5-124.3,36.2-124.3z"/>
<path fill="#0066CC" d="M11.8-131.5v2.1c0,1.1,1.1,2.1,2.4,2.1s2.4-0.9,2.4-2.1v-1.4C15-130.6,13.5-130.8,11.8-131.5z"/>
<path fill="#0066CC" d="M33.7-131.3v1.9c0,1.1,1.1,2.1,2.4,2.1s2.4-0.9,2.4-2.1v-3.8C37.3-132.8,35.2-131.9,33.7-131.3z"/>
</svg>
