<?xml version="1.0" encoding="utf-8"?>
<!-- Generator: Adobe Illustrator 18.0.0, SVG Export Plug-In . SVG Version: 6.00 Build 0)  -->
<!DOCTYPE svg PUBLIC "-//W3C//DTD SVG 1.1//EN" "http://www.w3.org/Graphics/SVG/1.1/DTD/svg11.dtd">
<svg version="1.1" id="Слой_1" xmlns="http://www.w3.org/2000/svg" xmlns:xlink="http://www.w3.org/1999/xlink" x="0px" y="0px"
	 viewBox="-158 -240 46 50" enable-background="new -158 -240 46 50" xml:space="preserve">
<g>
	<g>
		<path fill="#FFCC33" d="M-137.4-236.5c0-1.9-1.8-3.5-2-3.5l0,0l0,0l0,0l0,0c-0.2,0.1-2,1.7-2,3.5c0,1.3,1.1,1.8,2,1.8l0,0l0,0l0,0
			l0,0C-138.6-234.7-137.4-235.2-137.4-236.5z"/>
	</g>
	<g>
		<path fill="#FFCC33" d="M-154-225.4c-2.1,0-3.9,1.6-4,1.8l0,0l0,0l0,0l0,0c0.1,0.2,1.9,1.8,4,1.8c1.5,0,2-1,2-1.8l0,0l0,0l0,0l0,0
			C-152-224.3-152.5-225.4-154-225.4z"/>
	</g>
	<g>
		<path fill="#FFCC33" d="M-127.7-231.4c1.5-1.3,1.5-3.6,1.4-3.8l0,0l0,0l0,0l0,0c-0.2-0.1-2.7-0.1-4.2,1.3c-1,0.9-0.6,2,0,2.5l0,0
			l0,0l0,0l0,0C-130-230.9-128.8-230.5-127.7-231.4z"/>
	</g>
	<g>
		<path fill="#FFCC33" d="M-148.3-233.9c-1.5-1.3-4.1-1.3-4.2-1.3l0,0l0,0l0,0l0,0c-0.1,0.2-0.1,2.4,1.4,3.8c1,0.9,2.2,0.5,2.8,0
			l0,0l0,0l0,0l0,0C-147.7-232-147.3-233-148.3-233.9z"/>
	</g>
	<path fill="#FFCC33" d="M-138.8-222.6c4.1-2.3,6.3-3.3,8.4-3.6c-1.2-3.4-4.8-5.9-9.1-5.9c-5.3,0-9.5,3.8-9.5,8.4
		c0,1.3,0.4,2.6,1,3.7C-146.8-221.1-144.2-222.7-138.8-222.6z"/>
</g>
<path fill="#99CCFF" d="M-130-202.3c-2.4,0-4.7-0.5-6.8-1.5c-1.5,0.6-3.2,0.9-4.8,0.9c-6.4,0-11.5-4.6-11.5-10.2
	c0-5.6,5.2-10.2,11.5-10.2c0.4,0,0.9,0,1.3,0.1c2.7-2.5,6.3-3.9,10.3-3.9c5.4,0,10.2,2.7,12.6,6.9c3.3,1.3,5.4,4.1,5.4,7.3
	c0,4.4-4.1,8-9,8c-0.1,0-0.2,0-0.3,0C-123.8-203.2-126.8-202.3-130-202.3z M-136.6-207.9l1.1,0.6c1.7,1,3.6,1.5,5.6,1.5
	c2.5,0,4.9-0.8,6.7-2.3l0.7-0.5l0.9,0.1c0.3,0,0.5,0,0.7,0c2.8,0,5-2,5-4.4c0-1.9-1.4-3.7-3.5-4.2l-0.9-0.2l-0.4-0.8
	c-1.6-3.3-5.2-5.4-9.2-5.4c-3.1,0-6,1.2-7.9,3.4l-0.8,0.9l-1.2-0.2c-0.6-0.1-1.1-0.2-1.7-0.2c-4.1,0-7.5,3-7.5,6.7s3.4,6.7,7.5,6.7
	c1.3,0,2.7-0.3,3.9-1L-136.6-207.9z"/>
<ellipse fill="#0066CC" cx="-132.1" cy="-198.8" rx="2" ry="1.8"/>
<ellipse fill="#0066CC" cx="-140.8" cy="-202.4" rx="2" ry="1.8"/>
<ellipse fill="#0066CC" cx="-123.1" cy="-202.4" rx="2" ry="1.8"/>
<ellipse fill="#0066CC" cx="-132.1" cy="-191.8" rx="2" ry="1.8"/>
<ellipse fill="#0066CC" cx="-140.8" cy="-195.3" rx="2" ry="1.8"/>
<ellipse fill="#0066CC" cx="-123.1" cy="-195.3" rx="2" ry="1.8"/>
</svg>
