<?xml version="1.0" encoding="utf-8"?>
<!-- Generator: Adobe Illustrator 18.0.0, SVG Export Plug-In . SVG Version: 6.00 Build 0)  -->
<!DOCTYPE svg PUBLIC "-//W3C//DTD SVG 1.1//EN" "http://www.w3.org/Graphics/SVG/1.1/DTD/svg11.dtd">
<svg version="1.1" id="Слой_1" xmlns="http://www.w3.org/2000/svg" xmlns:xlink="http://www.w3.org/1999/xlink" x="0px" y="0px"
	 viewBox="-398 -160 46 50" enable-background="new -398 -160 46 50" xml:space="preserve">
<g>
	<g>
		<path fill="#FFCC33" d="M-377.4-156.3c0-2-1.8-3.6-2-3.7l0,0l0,0l0,0l0,0c-0.2,0.1-2,1.7-2,3.7c0,1.3,1.1,1.8,2,1.8l0,0l0,0l0,0
			l0,0C-378.6-154.5-377.4-155-377.4-156.3z"/>
	</g>
	<g>
		<path fill="#FFCC33" d="M-394-144.8c-2.1,0-3.9,1.7-4,1.8l0,0l0,0l0,0l0,0c0.1,0.2,1.9,1.8,4,1.8c1.5,0,2-1,2-1.8l0,0l0,0l0,0l0,0
			C-392-143.7-392.5-144.8-394-144.8z"/>
	</g>
	<g>
		<path fill="#FFCC33" d="M-367.7-151.1c1.5-1.4,1.5-3.7,1.4-3.9l0,0l0,0l0,0l0,0c-0.2-0.1-2.7-0.1-4.2,1.3c-1,1-0.6,2,0,2.6l0,0
			l0,0l0,0l0,0C-370-150.5-368.8-150.1-367.7-151.1z"/>
	</g>
	<g>
		<path fill="#FFCC33" d="M-388.3-153.7c-1.5-1.4-4.1-1.4-4.2-1.3l0,0l0,0l0,0l0,0c-0.1,0.2-0.1,2.5,1.4,3.9c1,1,2.2,0.6,2.8,0l0,0
			l0,0l0,0l0,0C-387.7-151.6-387.3-152.7-388.3-153.7z"/>
	</g>
	<path fill="#FFCC33" d="M-378.8-141.9c4.1-2.4,6.3-3.4,8.4-3.7c-1.2-3.5-4.8-6.1-9.1-6.1c-5.3,0-9.5,3.9-9.5,8.8
		c0,1.4,0.4,2.7,1,3.8C-386.8-140.4-384.2-142-378.8-141.9z"/>
</g>
<path fill="#99CCFF" d="M-370-120.8c-2.4,0-4.7-0.5-6.8-1.6c-1.5,0.6-3.2,1-4.8,1c-6.4,0-11.5-4.8-11.5-10.6
	c0-5.8,5.2-10.6,11.5-10.6c0.4,0,0.9,0,1.3,0.1c2.7-2.6,6.3-4.1,10.3-4.1c5.4,0,10.2,2.8,12.6,7.1c3.3,1.3,5.4,4.3,5.4,7.6
	c0,4.6-4.1,8.3-9,8.3c-0.1,0-0.2,0-0.3,0C-363.8-121.7-366.8-120.8-370-120.8z M-376.6-126.7l1.1,0.7c1.7,1,3.6,1.6,5.6,1.6
	c2.5,0,4.9-0.8,6.7-2.4l0.7-0.6l0.9,0.1c0.3,0,0.5,0,0.7,0c2.8,0,5-2.1,5-4.6c0-2-1.4-3.8-3.5-4.4l-0.9-0.3l-0.4-0.8
	c-1.6-3.4-5.2-5.6-9.2-5.6c-3.1,0-6,1.3-7.9,3.5l-0.8,0.9l-1.2-0.3c-0.6-0.1-1.1-0.2-1.7-0.2c-4.1,0-7.5,3.1-7.5,6.9
	c0,3.8,3.4,6.9,7.5,6.9c1.3,0,2.7-0.3,3.9-1L-376.6-126.7z"/>
<g>
	<polygon fill="#FFFF33" points="-376.8,-122.4 -365.7,-110 -370,-122.4 	"/>
	<polygon fill="#FFFF33" points="-362.1,-119.2 -373.2,-131.6 -368.9,-119.2 	"/>
</g>
</svg>
