<?xml version="1.0" encoding="utf-8"?>
<!-- Generator: Adobe Illustrator 18.0.0, SVG Export Plug-In . SVG Version: 6.00 Build 0)  -->
<!DOCTYPE svg PUBLIC "-//W3C//DTD SVG 1.1//EN" "http://www.w3.org/Graphics/SVG/1.1/DTD/svg11.dtd">
<svg version="1.1" id="Слой_1" xmlns="http://www.w3.org/2000/svg" xmlns:xlink="http://www.w3.org/1999/xlink" x="0px" y="0px"
	 viewBox="-160 -158 50 46" enable-background="new -160 -158 50 46" xml:space="preserve">
<g>
	<g>
		<path fill="#99CCFF" d="M-120.4-119.5c-5.5,0-9.8-2.4-13.2-4.4c-3.2-1.8-5.2-2.9-6.9-2.3c-1.3,0.4-2.7-0.2-3.1-1.5
			c-0.5-1.3,0.2-2.6,1.5-3.1c3.9-1.4,7.4,0.7,10.9,2.6c4.9,2.8,10,5.7,17.7,2.1c1.2-0.6,2.7-0.1,3.2,1.1c0.6,1.2,0.1,2.6-1.2,3.2
			C-114.7-120.1-117.7-119.5-120.4-119.5z"/>
		<path fill="#99CCFF" d="M-120.4-128c-3.9,0-7.1-1.9-10.3-3.7c-2.8-1.6-5.4-3.1-8.2-3.1c-1.3,0-2.4-1.1-2.4-2.4
			c0-1.3,1.1-2.4,2.4-2.4c4.2,0,7.6,2,10.7,3.8c2.7,1.6,5.2,3,7.8,3c1.3,0,2.4,1.1,2.4,2.4C-118-129-119.1-128-120.4-128z"/>
		<path fill="#99CCFF" d="M-128.2-112c-0.5,0-1-0.1-1.4-0.4c-0.7-0.5-1.3-0.9-1.9-1.3c-4.3-3-6.7-4.7-11.9-4
			c-1.3,0.2-2.6-0.7-2.7-2.1c-0.2-1.3,0.7-2.5,2.1-2.7c7.1-1,10.8,1.6,15.4,4.9c0.6,0.4,1.2,0.9,1.9,1.3c1.1,0.8,1.4,2.3,0.6,3.4
			C-126.6-112.4-127.4-112-128.2-112z"/>
		<path fill="#99CCFF" d="M-116.6-148.7c-2.9-5.7-8.8-9.3-15.3-9.3c-4.8,0-9.2,1.9-12.5,5.3c-0.5-0.1-1.1-0.1-1.6-0.1
			c-7.7,0-14,6.2-14,13.8s6.3,13.8,14,13.8c1.8,0,3.6-0.4,5.3-1l-1.5-4.6c-1.2,0.5-2.5,0.8-3.8,0.8c-5,0-9.1-4-9.1-9s4.1-9,9.1-9
			c0.7,0,1.3,0.1,2,0.2l1.5,0.3l1-1.2c2.3-2.9,5.8-4.6,9.6-4.6c4.9,0,9.3,2.9,11.2,7.4l0.4,1l1.1,0.3c2.6,0.8,4.3,3.1,4.3,5.7
			c0,3.1-2.4,5.6-5.4,6v4.8c5.7-0.4,10.2-5.1,10.2-10.8C-110-143.1-112.6-147-116.6-148.7z"/>
	</g>
</g>
</svg>
