<?xml version="1.0" encoding="utf-8"?>
<!-- Generator: Adobe Illustrator 18.0.0, SVG Export Plug-In . SVG Version: 6.00 Build 0)  -->
<!DOCTYPE svg PUBLIC "-//W3C//DTD SVG 1.1//EN" "http://www.w3.org/Graphics/SVG/1.1/DTD/svg11.dtd">
<svg version="1.1" id="Слой_1" xmlns="http://www.w3.org/2000/svg" xmlns:xlink="http://www.w3.org/1999/xlink" x="0px" y="0px"
	 viewBox="2 -240 46 50" enable-background="new 2 -240 46 50" xml:space="preserve">
<g>
	<g>
		<path fill="#FFCC33" d="M22.6-236.5c0-1.8-1.8-3.4-2-3.5l0,0l0,0l0,0l0,0c-0.2,0.1-2,1.6-2,3.5c0,1.3,1.1,1.7,2,1.7l0,0l0,0l0,0
			l0,0C21.4-234.8,22.6-235.2,22.6-236.5z"/>
	</g>
	<g>
		<path fill="#FFCC33" d="M6-225.6c-2.1,0-3.9,1.6-4,1.7l0,0l0,0l0,0l0,0c0.1,0.2,1.9,1.7,4,1.7c1.5,0,2-1,2-1.7l0,0l0,0l0,0l0,0
			C8-224.6,7.5-225.6,6-225.6z"/>
	</g>
	<g>
		<path fill="#FFCC33" d="M32.3-231.6c1.5-1.3,1.5-3.5,1.4-3.7l0,0l0,0l0,0l0,0c-0.2-0.1-2.7-0.1-4.2,1.2c-1,0.9-0.6,1.9,0,2.5l0,0
			l0,0l0,0l0,0C30-231,31.2-230.7,32.3-231.6z"/>
	</g>
	<g>
		<path fill="#FFCC33" d="M11.7-234c-1.5-1.3-4.1-1.3-4.2-1.2l0,0l0,0l0,0l0,0c-0.1,0.2-0.1,2.4,1.4,3.7c1,0.9,2.2,0.5,2.8,0l0,0
			l0,0l0,0l0,0C12.3-232.1,12.7-233.1,11.7-234z"/>
	</g>
	<path fill="#FFCC33" d="M21.2-222.9c4.1-2.3,6.3-3.2,8.4-3.5c-1.2-3.3-4.8-5.8-9.1-5.8c-5.3,0-9.5,3.7-9.5,8.3c0,1.3,0.4,2.5,1,3.6
		C13.2-221.4,15.8-222.9,21.2-222.9z"/>
</g>
<ellipse fill="#0066CC" cx="37.5" cy="-191.7" rx="2" ry="1.7"/>
<ellipse fill="#0066CC" cx="27.5" cy="-195.2" rx="2" ry="1.7"/>
<ellipse fill="#0066CC" cx="43.6" cy="-195.2" rx="2" ry="1.7"/>
<g>
	<polygon fill="#0066CC" points="35.8,-190.9 27.7,-203.9 31.3,-205.6 39.3,-192.6 	"/>
</g>
<g>
	<polygon fill="#0066CC" points="41.3,-195.4 35.1,-205.3 38.4,-206.8 44.5,-196.9 	"/>
</g>
<g>
	<polygon fill="#0066CC" points="25.7,-194.4 19.1,-205.2 22.6,-206.8 29.3,-196.1 	"/>
</g>
<path fill="#99CCFF" d="M30-202.9c-2.4,0-4.7-0.5-6.8-1.5c-1.5,0.6-3.2,0.9-4.8,0.9c-6.4,0-11.5-4.5-11.5-10s5.2-10,11.5-10
	c0.4,0,0.9,0,1.3,0.1c2.7-2.5,6.3-3.9,10.3-3.9c5.4,0,10.2,2.6,12.6,6.8c3.3,1.2,5.4,4,5.4,7.2c0,4.3-4.1,7.9-9,7.9
	c-0.1,0-0.2,0-0.3,0C36.2-203.8,33.2-202.9,30-202.9z M23.4-208.5l1.1,0.6c1.7,1,3.6,1.5,5.6,1.5c2.5,0,4.9-0.8,6.7-2.2l0.7-0.5
	l0.9,0.1c0.3,0,0.5,0,0.7,0c2.8,0,5-2,5-4.4c0-1.9-1.4-3.6-3.5-4.2l-0.9-0.2l-0.4-0.7c-1.6-3.2-5.2-5.3-9.2-5.3
	c-3.1,0-6,1.2-7.9,3.3l-0.8,0.9l-1.2-0.2c-0.6-0.1-1.1-0.2-1.7-0.2c-4.1,0-7.5,2.9-7.5,6.5s3.4,6.5,7.5,6.5c1.3,0,2.7-0.3,3.9-0.9
	L23.4-208.5z"/>
</svg>
