<?xml version="1.0" encoding="utf-8"?>
<!-- Generator: Adobe Illustrator 18.0.0, SVG Export Plug-In . SVG Version: 6.00 Build 0)  -->
<!DOCTYPE svg PUBLIC "-//W3C//DTD SVG 1.1//EN" "http://www.w3.org/Graphics/SVG/1.1/DTD/svg11.dtd">
<svg version="1.1" id="Слой_1" xmlns="http://www.w3.org/2000/svg" xmlns:xlink="http://www.w3.org/1999/xlink" x="0px" y="0px"
	 viewBox="-240 -78 50 46" enable-background="new -240 -78 50 46" xml:space="preserve">
<g>
	<path fill="#99CCFF" d="M-211.9-47.7c-2.9,0-5.7-0.6-8.2-1.9c-1.8,0.8-3.8,1.1-5.9,1.1c-7.7,0-14-5.6-14-12.4
		c0-6.9,6.3-12.4,14-12.4c0.5,0,1.1,0,1.6,0.1c3.2-3.1,7.7-4.8,12.5-4.8c6.5,0,12.4,3.3,15.3,8.4c4,1.5,6.6,5,6.6,8.9
		c0,5.4-4.9,9.7-11,9.7c-0.1,0-0.2,0-0.3,0C-204.3-48.8-208-47.7-211.9-47.7z M-220-54.6l1.3,0.8c2,1.2,4.4,1.8,6.8,1.8
		c3,0,5.9-1,8.2-2.8l0.8-0.7l1.1,0.1c0.3,0,0.6,0.1,0.8,0.1c3.4,0,6.1-2.4,6.1-5.4c0-2.4-1.7-4.5-4.3-5.2l-1.1-0.3l-0.4-0.9
		c-1.9-4-6.3-6.6-11.2-6.6c-3.8,0-7.3,1.5-9.6,4.2l-1,1.1l-1.5-0.3c-0.7-0.1-1.4-0.2-2-0.2c-5,0-9.1,3.6-9.1,8.1s4.1,8.1,9.1,8.1
		c1.6,0,3.3-0.4,4.7-1.2L-220-54.6z"/>
</g>
<g>
	<path fill="#99CCFF" d="M-225.5-36.3c-0.5,0-0.9-0.4-0.9-0.8v-3.8c0-0.4,0.4-0.8,0.9-0.8l0,0c0.5,0,0.9,0.4,0.9,0.8v3.8
		C-224.6-36.6-225-36.3-225.5-36.3L-225.5-36.3z"/>
	<path fill="#99CCFF" d="M-228.1-37.5c-0.3-0.4-0.2-0.9,0.3-1.1l3.6-2.1c0.4-0.2,1-0.1,1.3,0.2l0,0c0.3,0.4,0.2,0.9-0.3,1.1
		l-3.6,2.1C-227.2-37-227.8-37.1-228.1-37.5L-228.1-37.5z"/>
	<path fill="#99CCFF" d="M-228.1-40.5c-0.3,0.4-0.2,0.9,0.3,1.1l3.6,2.1c0.4,0.2,1,0.1,1.3-0.2l0,0c0.3-0.4,0.2-0.9-0.3-1.1
		l-3.6-2.1C-227.2-40.9-227.8-40.8-228.1-40.5L-228.1-40.5z"/>
</g>
<g>
	<path fill="#99CCFF" d="M-204-36.3c-0.5,0-0.9-0.4-0.9-0.8v-3.8c0-0.4,0.4-0.8,0.9-0.8l0,0c0.5,0,0.9,0.4,0.9,0.8v3.8
		C-203.1-36.6-203.5-36.3-204-36.3L-204-36.3z"/>
	<path fill="#99CCFF" d="M-206.5-37.5c-0.3-0.4-0.2-0.9,0.3-1.1l3.6-2.1c0.4-0.2,1-0.1,1.3,0.2l0,0c0.3,0.4,0.2,0.9-0.3,1.1
		l-3.6,2.1C-205.7-37-206.2-37.1-206.5-37.5L-206.5-37.5z"/>
	<path fill="#99CCFF" d="M-206.5-40.5c-0.3,0.4-0.2,0.9,0.3,1.1l3.6,2.1c0.4,0.2,1,0.1,1.3-0.2l0,0c0.3-0.4,0.2-0.9-0.3-1.1
		l-3.6-2.1C-205.7-40.9-206.2-40.8-206.5-40.5L-206.5-40.5z"/>
</g>
<g>
	<path fill="#99CCFF" d="M-214.9-32c-0.5,0-0.9-0.4-0.9-0.8v-3.8c0-0.4,0.4-0.8,0.9-0.8l0,0c0.5,0,0.9,0.4,0.9,0.8v3.8
		C-214-32.4-214.4-32-214.9-32L-214.9-32z"/>
	<path fill="#99CCFF" d="M-217.5-33.2c-0.3-0.4-0.2-0.9,0.3-1.1l3.6-2.1c0.4-0.2,1-0.1,1.3,0.2l0,0c0.3,0.4,0.2,0.9-0.3,1.1
		l-3.6,2.1C-216.6-32.7-217.2-32.8-217.5-33.2L-217.5-33.2z"/>
	<path fill="#99CCFF" d="M-217.5-36.2c-0.3,0.4-0.2,0.9,0.3,1.1l3.6,2.1c0.4,0.2,1,0.1,1.3-0.2l0,0c0.3-0.4,0.2-0.9-0.3-1.1
		l-3.6-2.1C-216.6-36.7-217.2-36.6-217.5-36.2L-217.5-36.2z"/>
</g>
<g>
	<path fill="#99CCFF" d="M-225.5-44.9c-0.5,0-0.9-0.4-0.9-0.8v-3.8c0-0.4,0.4-0.8,0.9-0.8l0,0c0.5,0,0.9,0.4,0.9,0.8v3.8
		C-224.6-45.3-225-44.9-225.5-44.9L-225.5-44.9z"/>
	<path fill="#99CCFF" d="M-228.1-46.1c-0.3-0.4-0.2-0.9,0.3-1.1l3.6-2.1c0.4-0.2,1-0.1,1.3,0.2l0,0c0.3,0.4,0.2,0.9-0.3,1.1
		l-3.6,2.1C-227.2-45.6-227.8-45.7-228.1-46.1L-228.1-46.1z"/>
	<path fill="#99CCFF" d="M-228.1-49.1c-0.3,0.4-0.2,0.9,0.3,1.1l3.6,2.1c0.4,0.2,1,0.1,1.3-0.2l0,0c0.3-0.4,0.2-0.9-0.3-1.1
		l-3.6-2.1C-227.2-49.6-227.8-49.5-228.1-49.1L-228.1-49.1z"/>
</g>
<g>
	<path fill="#99CCFF" d="M-204-44.9c-0.5,0-0.9-0.4-0.9-0.8v-3.8c0-0.4,0.4-0.8,0.9-0.8l0,0c0.5,0,0.9,0.4,0.9,0.8v3.8
		C-203.1-45.3-203.5-44.9-204-44.9L-204-44.9z"/>
	<path fill="#99CCFF" d="M-206.5-46.1c-0.3-0.4-0.2-0.9,0.3-1.1l3.6-2.1c0.4-0.2,1-0.1,1.3,0.2l0,0c0.3,0.4,0.2,0.9-0.3,1.1
		l-3.6,2.1C-205.7-45.6-206.2-45.7-206.5-46.1L-206.5-46.1z"/>
	<path fill="#99CCFF" d="M-206.5-49.1c-0.3,0.4-0.2,0.9,0.3,1.1l3.6,2.1c0.4,0.2,1,0.1,1.3-0.2l0,0c0.3-0.4,0.2-0.9-0.3-1.1
		l-3.6-2.1C-205.7-49.6-206.2-49.5-206.5-49.1L-206.5-49.1z"/>
</g>
<g>
	<path fill="#99CCFF" d="M-214.9-40.6c-0.5,0-0.9-0.4-0.9-0.8v-3.8c0-0.4,0.4-0.8,0.9-0.8l0,0c0.5,0,0.9,0.4,0.9,0.8v3.8
		C-214-41-214.4-40.6-214.9-40.6L-214.9-40.6z"/>
	<path fill="#99CCFF" d="M-217.5-41.8c-0.3-0.4-0.2-0.9,0.3-1.1l3.6-2.1c0.4-0.2,1-0.1,1.3,0.2l0,0c0.3,0.4,0.2,0.9-0.3,1.1
		l-3.6,2.1C-216.6-41.4-217.2-41.5-217.5-41.8L-217.5-41.8z"/>
	<path fill="#99CCFF" d="M-217.5-44.8c-0.3,0.4-0.2,0.9,0.3,1.1l3.6,2.1c0.4,0.2,1,0.1,1.3-0.2l0,0c0.3-0.4,0.2-0.9-0.3-1.1
		l-3.6-2.1C-216.6-45.3-217.2-45.2-217.5-44.8L-217.5-44.8z"/>
</g>
</svg>
