<?xml version="1.0" encoding="utf-8"?>
<!-- Generator: Adobe Illustrator 18.0.0, SVG Export Plug-In . SVG Version: 6.00 Build 0)  -->
<!DOCTYPE svg PUBLIC "-//W3C//DTD SVG 1.1//EN" "http://www.w3.org/Graphics/SVG/1.1/DTD/svg11.dtd">
<svg version="1.1" id="Слой_1" xmlns="http://www.w3.org/2000/svg" xmlns:xlink="http://www.w3.org/1999/xlink" x="0px" y="0px"
	 viewBox="-78 -240 46 50" enable-background="new -78 -240 46 50" xml:space="preserve">
<g>
	<g>
		<path fill="#FFCC33" d="M-57.4-236.6c0-1.8-1.8-3.3-2-3.4l0,0l0,0l0,0l0,0c-0.2,0.1-2,1.6-2,3.4c0,1.2,1.1,1.7,2,1.7l0,0l0,0l0,0
			l0,0C-58.6-234.9-57.4-235.4-57.4-236.6z"/>
	</g>
	<g>
		<path fill="#FFCC33" d="M-74-226c-2.1,0-3.9,1.5-4,1.7l0,0l0,0l0,0l0,0c0.1,0.2,1.9,1.7,4,1.7c1.5,0,2-1,2-1.7l0,0l0,0l0,0l0,0
			C-72-225.1-72.5-226-74-226z"/>
	</g>
	<g>
		<path fill="#FFCC33" d="M-47.7-231.8c1.5-1.3,1.5-3.4,1.4-3.6l0,0l0,0l0,0l0,0c-0.2-0.1-2.7-0.1-4.2,1.2c-1,0.9-0.6,1.9,0,2.4l0,0
			l0,0l0,0l0,0C-50-231.3-48.8-230.9-47.7-231.8z"/>
	</g>
	<g>
		<path fill="#FFCC33" d="M-68.3-234.2c-1.5-1.3-4.1-1.3-4.2-1.2l0,0l0,0l0,0l0,0c-0.1,0.2-0.1,2.3,1.4,3.6c1,0.9,2.2,0.5,2.8,0l0,0
			l0,0l0,0l0,0C-67.7-232.3-67.3-233.3-68.3-234.2z"/>
	</g>
	<path fill="#FFCC33" d="M-58.8-223.4c4.1-2.2,6.3-3.1,8.4-3.4c-1.2-3.2-4.8-5.6-9.1-5.6c-5.3,0-9.5,3.6-9.5,8c0,1.3,0.4,2.5,1,3.5
		C-66.8-222-64.2-223.5-58.8-223.4z"/>
</g>
<path fill="#99CCFF" d="M-50-204c-2.4,0-4.7-0.5-6.8-1.5c-1.5,0.6-3.2,0.9-4.8,0.9c-6.4,0-11.5-4.4-11.5-9.7c0-5.4,5.2-9.7,11.5-9.7
	c0.4,0,0.9,0,1.3,0.1c2.7-2.4,6.3-3.8,10.3-3.8c5.4,0,10.2,2.6,12.6,6.6c3.3,1.2,5.4,3.9,5.4,7c0,4.2-4.1,7.6-9,7.6
	c-0.1,0-0.2,0-0.3,0C-43.8-204.9-46.8-204-50-204z M-56.6-209.4l1.1,0.6c1.7,0.9,3.6,1.4,5.6,1.4c2.5,0,4.9-0.8,6.7-2.2l0.7-0.5
	l0.9,0.1c0.3,0,0.5,0,0.7,0c2.8,0,5-1.9,5-4.2c0-1.9-1.4-3.5-3.5-4l-0.9-0.2l-0.4-0.7c-1.6-3.1-5.2-5.2-9.2-5.2
	c-3.1,0-6,1.2-7.9,3.2l-0.8,0.8l-1.2-0.2c-0.6-0.1-1.1-0.2-1.7-0.2c-4.1,0-7.5,2.8-7.5,6.3s3.4,6.3,7.5,6.3c1.3,0,2.7-0.3,3.9-0.9
	L-56.6-209.4z"/>
<path fill="#0066CC" d="M-52.4-196.7c-1.1,0-2,0.8-2,1.7v3.3c0,0.9,0.9,1.7,2,1.7s2-0.8,2-1.7v-3.3C-50.4-196-51.3-196.7-52.4-196.7
	z"/>
<path fill="#0066CC" d="M-52.4-206c-1.1,0-2,0.8-2,1.7v3.3c0,0.9,0.9,1.7,2,1.7s2-0.8,2-1.7v-3.3C-50.4-205.2-51.3-206-52.4-206z"/>
<path fill="#0066CC" d="M-61.4-200.1c-1.1,0-2,0.8-2,1.7v3.3c0,0.9,0.9,1.7,2,1.7s2-0.8,2-1.7v-3.3
	C-59.4-199.3-60.3-200.1-61.4-200.1z"/>
<path fill="#0066CC" d="M-43.4-200.1c-1.1,0-2,0.8-2,1.7v3.3c0,0.9,0.9,1.7,2,1.7s2-0.8,2-1.7v-3.3
	C-41.4-199.3-42.3-200.1-43.4-200.1z"/>
<path fill="#0066CC" d="M-63.4-206v1.7c0,0.9,0.9,1.7,2,1.7s2-0.8,2-1.7v-1.2C-60.8-205.3-62-205.5-63.4-206z"/>
<path fill="#0066CC" d="M-45.4-205.9v1.6c0,0.9,0.9,1.7,2,1.7s2-0.8,2-1.7v-3.1C-42.4-207-44.2-206.3-45.4-205.9z"/>
</svg>
