<?xml version="1.0" encoding="utf-8"?>
<!-- Generator: Adobe Illustrator 18.0.0, SVG Export Plug-In . SVG Version: 6.00 Build 0)  -->
<!DOCTYPE svg PUBLIC "-//W3C//DTD SVG 1.1//EN" "http://www.w3.org/Graphics/SVG/1.1/DTD/svg11.dtd">
<svg version="1.1" id="Слой_1" xmlns="http://www.w3.org/2000/svg" xmlns:xlink="http://www.w3.org/1999/xlink" x="0px" y="0px"
	 viewBox="-320 -77.9 50 45.9" enable-background="new -320 -77.9 50 45.9" xml:space="preserve">
<path fill="#99CCFF" d="M-291.9-45.5c-2.9,0-5.7-0.7-8.2-2c-1.8,0.8-3.8,1.2-5.9,1.2c-7.7,0-14-6-14-13.3s6.3-13.3,14-13.3
	c0.5,0,1.1,0,1.6,0.1c3.2-3.3,7.7-5.1,12.5-5.1c6.5,0,12.4,3.5,15.3,9c4,1.6,6.6,5.4,6.6,9.6c0,5.8-4.9,10.4-11,10.4
	c-0.1,0-0.2,0-0.3,0C-284.3-46.7-288-45.5-291.9-45.5z M-300-52.9l1.3,0.8c2,1.3,4.4,2,6.8,2c3,0,5.9-1.1,8.2-3l0.8-0.7l1.1,0.1
	c0.3,0,0.6,0.1,0.8,0.1c3.4,0,6.1-2.6,6.1-5.8c0-2.5-1.7-4.8-4.3-5.5l-1.1-0.3l-0.4-1c-1.9-4.3-6.3-7.1-11.2-7.1
	c-3.8,0-7.3,1.6-9.6,4.4l-1,1.2L-304-68c-0.7-0.1-1.4-0.2-2-0.2c-5,0-9.1,3.9-9.1,8.7s4.1,8.7,9.1,8.7c1.6,0,3.3-0.4,4.7-1.2
	L-300-52.9z"/>
<g>
	<polygon fill="#FFFF33" points="-300.2,-47.6 -286.7,-32 -291.9,-47.6 	"/>
	<polygon fill="#FFFF33" points="-282.3,-43.5 -295.8,-59.1 -290.6,-43.5 	"/>
</g>
<g>
	<ellipse fill="#0066CC" cx="-281.6" cy="-34.5" rx="2.4" ry="2.3"/>
	<ellipse fill="#0066CC" cx="-284.1" cy="-39" rx="2.4" ry="2.3"/>
	<g>
		<polygon fill="#0066CC" points="-283.8,-33.4 -286.3,-38 -281.9,-40.1 -279.5,-35.5 		"/>
	</g>
</g>
<g>
	<ellipse fill="#0066CC" cx="-299.2" cy="-37.9" rx="2.4" ry="2.3"/>
	<ellipse fill="#0066CC" cx="-301.7" cy="-42.5" rx="2.4" ry="2.3"/>
	<g>
		<polygon fill="#0066CC" points="-301.4,-36.8 -303.9,-41.4 -299.5,-43.5 -297.1,-38.9 		"/>
	</g>
</g>
<g>
	<ellipse fill="#0066CC" cx="-275.2" cy="-39.1" rx="2.4" ry="2.3"/>
	<ellipse fill="#0066CC" cx="-277.6" cy="-43.6" rx="2.4" ry="2.3"/>
	<g>
		<polygon fill="#0066CC" points="-277.4,-38 -279.8,-42.6 -275.5,-44.7 -273,-40.1 		"/>
	</g>
</g>
</svg>
