<?xml version="1.0" encoding="utf-8"?>
<!-- Generator: Adobe Illustrator 18.0.0, SVG Export Plug-In . SVG Version: 6.00 Build 0)  -->
<!DOCTYPE svg PUBLIC "-//W3C//DTD SVG 1.1//EN" "http://www.w3.org/Graphics/SVG/1.1/DTD/svg11.dtd">
<svg version="1.1" id="Слой_1" xmlns="http://www.w3.org/2000/svg" xmlns:xlink="http://www.w3.org/1999/xlink" x="0px" y="0px"
	 viewBox="-160 -78.2 50 46.2" enable-background="new -160 -78.2 50 46.2" xml:space="preserve">
<g>
	<path fill="#99CCFF" d="M-131.9-47.9c-2.9,0-5.7-0.6-8.2-1.9c-1.8,0.7-3.8,1.1-5.9,1.1c-7.7,0-14-5.5-14-12.4
		c0-6.8,6.3-12.4,14-12.4c0.5,0,1.1,0,1.6,0.1c3.2-3,7.7-4.8,12.5-4.8c6.5,0,12.4,3.2,15.3,8.3c4,1.5,6.6,5,6.6,8.9
		c0,5.3-4.9,9.7-11,9.7c-0.1,0-0.2,0-0.3,0C-124.3-49-128-47.9-131.9-47.9z M-140-54.8l1.3,0.8c2,1.2,4.4,1.8,6.8,1.8
		c3,0,5.9-1,8.2-2.8l0.8-0.7l1.1,0.1c0.3,0,0.6,0.1,0.8,0.1c3.4,0,6.1-2.4,6.1-5.4c0-2.4-1.7-4.4-4.3-5.1l-1.1-0.3l-0.4-0.9
		c-1.9-4-6.3-6.6-11.2-6.6c-3.8,0-7.3,1.5-9.6,4.1l-1,1.1l-1.5-0.3c-0.7-0.1-1.4-0.2-2-0.2c-5,0-9.1,3.6-9.1,8.1
		c0,4.4,4.1,8.1,9.1,8.1c1.6,0,3.3-0.4,4.7-1.2L-140-54.8z"/>
</g>
<ellipse fill="#0066CC" cx="-122.7" cy="-34.1" rx="2.4" ry="2.1"/>
<ellipse fill="#0066CC" cx="-134.9" cy="-38.4" rx="2.4" ry="2.1"/>
<ellipse fill="#0066CC" cx="-115.4" cy="-38.4" rx="2.4" ry="2.1"/>
<g>
	<polygon fill="#0066CC" points="-124.9,-33.1 -134.6,-49.2 -130.3,-51.2 -120.6,-35.2 	"/>
</g>
<g>
	<polygon fill="#0066CC" points="-117.6,-37.4 -125.6,-50.7 -121.3,-52.7 -113.3,-39.5 	"/>
</g>
<g>
	<polygon fill="#0066CC" points="-137.1,-37.4 -145.1,-50.7 -140.8,-52.7 -132.8,-39.5 	"/>
</g>
</svg>
