<?xml version="1.0" encoding="utf-8"?>
<!-- Generator: Adobe Illustrator 18.0.0, SVG Export Plug-In . SVG Version: 6.00 Build 0)  -->
<!DOCTYPE svg PUBLIC "-//W3C//DTD SVG 1.1//EN" "http://www.w3.org/Graphics/SVG/1.1/DTD/svg11.dtd">
<svg version="1.1" id="Слой_1" xmlns="http://www.w3.org/2000/svg" xmlns:xlink="http://www.w3.org/1999/xlink" x="0px" y="0px"
	 viewBox="0 0 16 16" enable-background="new 0 0 16 16" xml:space="preserve">
<rect x="1.7" y="-2.3" fill="none" width="16.7" height="16"/>
<text transform="matrix(1 0 0 1 1.6907 10.4661)" font-family="'MyriadPro-Regular'" font-size="18">w</text>
<path fill="#99CCFF" d="M9,13.7c-0.9,0-1.8-0.3-2.7-0.7c-0.6,0.3-1.2,0.4-1.9,0.4C2,13.4,0,11.3,0,8.7s2-4.7,4.5-4.7
	c0.2,0,0.4,0,0.5,0C6,3,7.5,2.3,9,2.3c2.1,0,4,1.2,4.9,3.1C15.2,6,16,7.3,16,8.8c0,2-1.6,3.7-3.5,3.7c0,0-0.1,0-0.1,0
	C11.4,13.3,10.3,13.7,9,13.7z M6.4,11.1l0.4,0.3c0.6,0.4,1.4,0.7,2.2,0.7c1,0,1.9-0.4,2.6-1l0.3-0.3l0.4,0c0.1,0,0.2,0,0.3,0
	c1.1,0,2-0.9,2-2c0-0.9-0.5-1.7-1.4-1.9l-0.4-0.1l-0.1-0.4C12,4.9,10.5,3.9,9,3.9c-1.2,0-2.3,0.6-3.1,1.5L5.6,5.9L5.1,5.8
	c-0.2,0-0.4-0.1-0.6-0.1c-1.6,0-2.9,1.4-2.9,3s1.3,3,2.9,3c0.5,0,1-0.1,1.5-0.4L6.4,11.1z"/>
<rect x="1.2" y="-2.1" fill="none" width="16.7" height="16"/>
<text transform="matrix(1 0 0 1 1.2369 10.7249)" fill="#3399FF" font-family="'MyriadPro-Regular'" font-size="18">w</text>
</svg>
