<?xml version="1.0" encoding="utf-8"?>
<!-- Generator: Adobe Illustrator 18.0.0, SVG Export Plug-In . SVG Version: 6.00 Build 0)  -->
<!DOCTYPE svg PUBLIC "-//W3C//DTD SVG 1.1//EN" "http://www.w3.org/Graphics/SVG/1.1/DTD/svg11.dtd">
<svg version="1.1" id="Layer_1" xmlns="http://www.w3.org/2000/svg" xmlns:xlink="http://www.w3.org/1999/xlink" x="0px" y="0px"
	 viewBox="0 0 16 16" enable-background="new 0 0 16 16" xml:space="preserve">
<path fill="none" d="M8.6,10.9V9V4.4V2.7c0-0.5-0.4-0.9-0.9-0.9c-0.5,0-0.9,0.4-0.9,0.9v1.8V9v1.9c-0.5,0.3-0.9,0.9-0.9,1.5
	c0,1,0.8,1.8,1.8,1.8s1.8-0.8,1.8-1.8C9.5,11.8,9.1,11.2,8.6,10.9z M7.7,13.8c-0.8,0-1.4-0.6-1.4-1.3c0-0.6,0.4-1.1,0.9-1.2V6.6h0.9
	v4.6c0.5,0.2,0.9,0.7,0.9,1.2C9.1,13.2,8.5,13.8,7.7,13.8z"/>
<path fill="#FF3333" d="M8.2,11.2V6.6H7.3v4.5c-0.5,0.2-0.9,0.7-0.9,1.2c0,0.7,0.6,1.3,1.4,1.3c0.8,0,1.4-0.6,1.4-1.3
	C9.1,11.9,8.7,11.4,8.2,11.2z"/>
<path fill="#3399FF" d="M10.4,10.1V2.7C10.4,1.2,9.2,0,7.7,0C6.2,0,5,1.2,5,2.7v7.4c-0.6,0.6-0.9,1.4-0.9,2.4c0,2,1.6,3.6,3.6,3.6
	c2,0,3.6-1.6,3.6-3.6C11.4,11.5,11,10.7,10.4,10.1z M7.7,14.2c-1,0-1.8-0.8-1.8-1.8c0-0.7,0.4-1.2,0.9-1.5V9V4.4V2.7
	c0-0.5,0.4-0.9,0.9-0.9c0.5,0,0.9,0.4,0.9,0.9v1.8V9v1.9c0.5,0.3,0.9,0.9,0.9,1.5C9.5,13.4,8.7,14.2,7.7,14.2z"/>
</svg>
