<?xml version="1.0" encoding="utf-8"?>
<!-- Generator: Adobe Illustrator 18.0.0, SVG Export Plug-In . SVG Version: 6.00 Build 0)  -->
<!DOCTYPE svg PUBLIC "-//W3C//DTD SVG 1.1//EN" "http://www.w3.org/Graphics/SVG/1.1/DTD/svg11.dtd">
<svg version="1.1" id="Layer_1" xmlns="http://www.w3.org/2000/svg" xmlns:xlink="http://www.w3.org/1999/xlink" x="0px" y="0px"
	 viewBox="0 0 16 16" enable-background="new 0 0 16 16" xml:space="preserve">
<path fill="#99CCFF" d="M13.7,9.1L13.7,9.1h-1.1c-0.4,0-0.7-0.5-0.7-1.1s0.3-1.1,0.7-1.1h1.1c0.4,0,0.7-0.5,0.7-1.1
	s-0.3-1.1-0.7-1.1c-0.4,0-0.7-0.5-0.7-1.1s0.3-1.1,0.7-1.1c0,0,0.1,0,0.1,0c1.1,0.1,2,1.6,2,3.4C15.9,7.6,14.9,9.1,13.7,9.1z
	 M10.1,6.8H9.4H6.8H2.1C1.7,6.8,1.4,7.4,1.4,8s0.3,1.1,0.7,1.1h0.7h1.5h1.1h1.5h1.1h1.5h0.7c1.2,0,2.2,1.5,2.2,3.4
	c0,1.8-0.9,3.3-2,3.4c0,0-0.1,0-0.1,0c-0.4,0-0.7-0.5-0.7-1.1s0.3-1.1,0.7-1.1c0.4,0,0.7-0.5,0.7-1.1s-0.3-1.1-0.7-1.1H9.4H7.9H6.8
	H5.4H4.3H2.8H2.1c-1.2,0-2.2-1.5-2.2-3.4c0-1.8,0.9-3.3,2-3.4c0,0,0.1,0,0.1,0l0,0h4.7h2.5h0.7c0.4,0,0.7-0.5,0.7-1.1
	s-0.3-1.1-0.7-1.1c-0.4,0-0.7-0.5-0.7-1.1S9.7,0,10.1,0c0,0,0.1,0,0.1,0c1.1,0.1,2,1.6,2,3.4C12.3,5.3,11.3,6.8,10.1,6.8z"/>
</svg>
